<?xml version="1.0" encoding="UTF-8"?>
<svg version="1.1" xmlns="http://www.w3.org/2000/svg" width="2925" height="635">
<path d="M0 0 C9.0026396 9.32057668 9.94748606 19.61849783 9.8203125 32.04077148 C8.30913991 81.00040214 -32.40342748 128.56823741 -61.6484375 164.86328125 C-62.76798828 166.25740234 -62.76798828 166.25740234 -63.91015625 167.6796875 C-75.32074381 181.75342835 -87.13475918 195.59346802 -100.09375 208.2734375 C-101.76788079 209.98542552 -103.29484128 211.78092522 -104.8359375 213.61328125 C-108.11804621 217.41590059 -111.72478855 220.73443586 -115.46264648 224.08398438 C-121.23996294 229.30893387 -126.69222726 234.85396392 -132.15356445 240.40576172 C-132.87890381 241.13939941 -133.60424316 241.87303711 -134.3515625 242.62890625 C-134.98739258 243.27633789 -135.62322266 243.92376953 -136.27832031 244.59082031 C-138.16259921 246.39746102 -140.06956456 248.08434394 -142.05395508 249.77539062 C-148.48586007 255.36974942 -154.43076165 261.4810774 -160.45703125 267.50390625 C-161.79160111 268.83525555 -163.12624293 270.16653272 -164.46095276 271.4977417 C-167.248937 274.27976386 -170.03487289 277.06381892 -172.81958008 279.84912109 C-176.36239975 283.39204225 -179.91204534 286.92803697 -183.46351528 290.46228409 C-186.2201578 293.20772857 -188.97216274 295.95778693 -191.72294807 298.70909882 C-193.02847523 300.01345754 -194.33559694 301.31622255 -195.64443779 302.61725616 C-203.11820117 310.05059618 -210.15746083 317.54101965 -216.6484375 325.86328125 C-217.55254168 326.98245296 -218.45735628 328.10105164 -219.36328125 329.21875 C-236.88761315 351.5476439 -253.20044346 378.48553819 -250.6484375 407.86328125 C-249.10339592 412.81607808 -246.4140471 415.7264684 -241.9609375 418.30078125 C-231.97953235 422.4643469 -221.51634935 421.0020454 -211.63623047 417.06054688 C-194.69993318 409.63707832 -180.38233911 398.27325209 -168.9453125 383.75390625 C-166.94531954 381.2369083 -164.87803344 378.80120244 -162.76635742 376.37792969 C-155.4686911 367.96405776 -149.06020725 358.95981846 -142.6484375 349.86328125 C-142.0822168 349.06470703 -141.51599609 348.26613281 -140.93261719 347.44335938 C-131.02935253 333.47477941 -121.51555409 319.26345555 -112.08105469 304.97558594 C-89.83194831 271.29111563 -89.83194831 271.29111563 -80.6484375 259.86328125 C-80.184375 259.27724121 -79.7203125 258.69120117 -79.2421875 258.08740234 C-63.43364719 238.22470173 -63.43364719 238.22470173 -51.40234375 236.55078125 C-34.4006772 235.72269399 -16.50841426 241.99034951 -3.6484375 252.86328125 C-0.9336967 256.93539244 -0.78113174 260.0813792 -1.6484375 264.86328125 C-3.21264792 267.93222641 -5.3435284 270.32075265 -7.6484375 272.86328125 C-8.66357422 274.03697266 -8.66357422 274.03697266 -9.69921875 275.234375 C-13.52686349 279.5923151 -17.50605598 283.74201923 -21.6484375 287.80078125 C-25.84212457 291.94930554 -29.58129092 296.30555556 -33.2578125 300.9140625 C-35.38154988 303.53403263 -37.56484995 306.07319841 -39.78979492 308.60595703 C-75.02474821 347.97828233 -75.02474821 347.97828233 -90.9765625 396.48828125 C-90.3826262 400.78724873 -88.64343673 403.76035412 -85.6484375 406.86328125 C-80.11798504 410.96138631 -74.48743231 412.70712886 -67.625 412.33984375 C-35.41395886 407.18269543 -6.18721797 373.8600104 13.12109375 349.625 C15.7510732 346.36861564 18.48469839 343.21286772 21.2265625 340.05078125 C25.68015085 334.89384666 29.96017783 329.63199935 34.13842773 324.25024414 C37.61953728 319.77116274 41.19108438 315.37379965 44.7890625 310.98828125 C49.67588505 305.01573892 54.3677398 298.92493771 58.96801758 292.72973633 C62.24087272 288.32644535 65.57514206 283.98048845 68.9765625 279.67578125 C74.15895569 273.11519909 79.27450006 266.50567546 84.3515625 259.86328125 C84.94630371 259.08533203 85.54104492 258.30738281 86.15380859 257.50585938 C93.40177412 248.02010933 100.63142951 238.5218438 107.77514648 228.95727539 C111.22661765 224.34315465 114.71936152 219.76194037 118.22290039 215.18725586 C124.43361875 207.07435364 130.54141087 198.9066447 136.49023438 190.59985352 C140.51773078 184.98649944 144.63372729 179.44506109 148.7890625 173.92578125 C153.96379191 167.05106263 159.11555463 160.16055162 164.2265625 153.23828125 C164.82782959 152.42625244 165.42909668 151.61422363 166.04858398 150.77758789 C166.59973877 150.02985107 167.15089355 149.28211426 167.71875 148.51171875 C168.20456543 147.85349121 168.69038086 147.19526367 169.19091797 146.51708984 C170.41505314 144.85941931 170.41505314 144.85941931 171.3515625 142.86328125 C170.57363531 142.8665338 169.79570812 142.86978636 168.99420738 142.87313747 C149.85266491 142.94174831 130.73356517 142.75081135 111.59628725 142.29042554 C108.83366077 142.22439334 106.07098287 142.16065783 103.30830419 142.09685272 C96.80799508 141.94667414 90.30778009 141.79284485 83.80761719 141.63647461 C77.11846653 141.47562224 70.42918841 141.32115805 63.73982108 141.1696077 C57.94381442 141.03808522 52.14790366 140.90281664 46.35205591 140.76446861 C42.9112993 140.68236921 39.47052473 140.60167658 36.02965164 140.52459908 C32.23008864 140.43844705 28.43072436 140.3461604 24.63134766 140.25219727 C23.49610153 140.22774033 22.36085541 140.20328339 21.19120789 140.17808533 C20.16603561 140.1514682 19.14086334 140.12485107 18.08462524 140.09742737 C17.18926874 140.07622613 16.29391224 140.05502489 15.37142372 140.03318119 C13.3515625 139.86328125 13.3515625 139.86328125 12.3515625 138.86328125 C11.77579939 131.09047927 12.93607376 123.37671941 17.4140625 116.86328125 C25.22795299 111.5431856 34.29646139 111.36512044 43.46679688 111.17138672 C44.74322556 111.13354065 46.01965424 111.09569458 47.33476257 111.05670166 C50.81282835 110.95385139 54.2911263 110.86757419 57.76970863 110.78431463 C61.44534434 110.69334318 65.12052164 110.58655044 68.79577637 110.48147583 C75.77302709 110.2843125 82.75056335 110.100696 89.72831488 109.92223561 C98.34131616 109.70137733 106.95386062 109.46443186 115.56640625 109.2265625 C118.62292213 109.14216549 121.67944009 109.0578449 124.73596191 108.97366333 C125.48062478 108.95314632 126.22528764 108.9326293 126.99251604 108.91149056 C132.70640658 108.75461229 138.42042576 108.60302917 144.13460302 108.45695436 C147.44578616 108.37150464 150.75640017 108.27755411 154.06700897 108.17194939 C160.31607858 107.97378235 166.54334476 107.85390027 172.7956543 107.91656494 C173.97619133 107.91262285 175.15672836 107.90868076 176.37303925 107.90461922 C178.56680223 107.89845079 180.76108494 107.92690525 182.95368195 107.99868584 C187.52221034 107.9500723 190.28293357 107.7099361 193.93422318 104.81708717 C197.75569633 100.78262472 201.06337871 96.50876027 203.8359375 91.68359375 C207.04169175 86.3129834 210.58077487 81.34699761 214.3515625 76.36328125 C215.49533465 74.80864743 216.63724537 73.2526425 217.77734375 71.6953125 C223.59354866 63.80339973 229.55140662 56.01889066 235.52539062 48.24609375 C237.19051445 46.07341881 238.84295989 43.89177779 240.4921875 41.70703125 C253.37582142 24.76414009 269.45510419 13.33710188 290.7890625 9.55078125 C304.37858177 7.83351515 320.11207594 7.19245582 331.76171875 15.56640625 C335.03273456 18.23465502 337.00307465 19.97716717 337.796875 24.2734375 C338.34151873 32.6917352 335.45267041 38.11743112 330.03466797 44.38720703 C327.53160201 47.18285018 324.96224927 49.91131495 322.375 52.62890625 C318.8671662 56.33272072 315.68935111 60.27425074 312.49609375 64.25 C310.35281294 66.86175748 308.1277592 69.36693427 305.8515625 71.86328125 C301.93387408 76.16185604 298.26189108 80.6193793 294.60546875 85.140625 C292.40009546 87.80465478 290.1197994 90.37116567 287.7890625 92.92578125 C283.41034847 97.72849048 279.3617255 102.75205835 275.3515625 107.86328125 C289.71368507 107.37166091 304.04446025 106.53462919 318.3828125 105.59375 C319.7602639 105.50348856 319.7602639 105.50348856 321.1655426 105.41140366 C325.02794718 105.15806268 328.89031036 104.90410011 332.75263214 104.64949989 C370.28595441 102.1754743 407.82033826 99.94822284 445.39257812 98.15698242 C448.41017638 98.01262412 451.42774912 97.86774147 454.4453125 97.72265625 C455.16591921 97.68819901 455.88652592 97.65374176 456.62896919 97.61824036 C468.22661878 97.06042145 479.80847258 96.3503598 491.3894043 95.51275635 C522.73353519 93.28643275 522.73353519 93.28643275 528.3515625 97.86328125 C532.78465604 104.43648892 531.62402748 111.47013616 530.23510742 118.8659668 C523.89847114 149.9833228 523.89847114 149.9833228 512.421875 158.25390625 C510.5390625 159.36328125 510.5390625 159.36328125 507.3515625 160.86328125 C506.6915625 161.19328125 506.0315625 161.52328125 505.3515625 161.86328125 C492.7521049 162.52272142 480.32225677 161.36101999 467.80761719 160.01242065 C462.20648186 159.41260196 456.60135119 158.85274944 450.99609375 158.29296875 C449.80988434 158.17439011 448.62367493 158.05581146 447.40151978 157.93363953 C410.89333408 154.3240835 374.28134635 151.80768404 337.6640625 149.61328125 C336.97037567 149.57143078 336.27668884 149.52958031 335.5619812 149.48646164 C311.62997208 148.04319471 287.64857381 146.64667904 263.6640625 146.73828125 C262.57802734 146.73441406 261.49199219 146.73054687 260.37304688 146.7265625 C257.3633552 146.73021282 254.36016573 146.78740984 251.3515625 146.86328125 C250.51334961 146.85627197 249.67513672 146.8492627 248.81152344 146.84204102 C245.52119387 146.95472826 243.2547114 147.1576287 240.61547852 149.21972656 C238.91450935 151.07929365 237.44450519 153.00253842 235.9765625 155.05078125 C235.42476318 155.77402588 234.87296387 156.49727051 234.30444336 157.24243164 C233.17323578 158.72735494 232.05230578 160.220165 230.94189453 161.72070312 C228.65957931 164.79555704 226.28765032 167.79625637 223.9140625 170.80078125 C223.25688232 171.64225708 223.25688232 171.64225708 222.58642578 172.50073242 C218.33837206 177.93203049 213.94121071 183.23661405 209.54321289 188.54663086 C205.91466771 192.9373045 202.35011003 197.36848437 198.8515625 201.86328125 C193.66040089 208.52831056 188.29382586 215.04087948 182.91015625 221.55078125 C179.42977842 225.76111527 175.98000141 229.9956881 172.5390625 234.23828125 C171.45833721 235.57031564 170.37760816 236.90234699 169.296875 238.234375 C168.79188477 238.85683105 168.28689453 239.47928711 167.76660156 240.12060547 C164.30854018 244.3793429 160.83151951 248.62243332 157.3515625 252.86328125 C156.84012695 253.4881543 156.32869141 254.11302734 155.80175781 254.75683594 C154.04913367 256.89780842 152.29461422 259.03720868 150.5390625 261.17578125 C149.93642578 261.91006348 149.33378906 262.6443457 148.71289062 263.40087891 C145.48081477 267.32492385 142.20645102 271.20126136 138.85668945 275.02514648 C126.07573669 289.64894436 114.78643746 305.49896951 104.3515625 321.86328125 C103.95807617 322.47913086 103.56458984 323.09498047 103.15917969 323.72949219 C79.545864 360.76551288 79.545864 360.76551288 73.3515625 402.86328125 C74.95223944 408.22169709 77.53453574 411.90737847 82.3515625 414.86328125 C92.36020098 419.77980541 102.22822204 418.51262418 112.63671875 415.2578125 C140.89134506 404.65118622 163.95700021 384.36744417 182.3515625 360.86328125 C183.32752634 359.67314756 184.30694223 358.48583964 185.2890625 357.30078125 C195.53301754 344.91543448 204.95582853 331.97115598 214.34838867 318.93530273 C233.35773153 292.55481568 233.35773153 292.55481568 241.90234375 283.48828125 C243.83209541 281.42003066 245.68190586 279.32451125 247.5234375 277.1796875 C251.89153311 272.16657898 256.57859096 267.49005036 261.2890625 262.80078125 C262.14435547 261.94162109 262.99964844 261.08246094 263.88085938 260.19726562 C268.87580688 255.20993818 273.983178 250.44419555 279.3515625 245.86328125 C280.36166986 244.97508611 281.37085432 244.08583976 282.37890625 243.1953125 C300.36827437 227.62062466 320.15486748 214.14999616 343.3515625 207.86328125 C345.03765625 207.40501953 345.03765625 207.40501953 346.7578125 206.9375 C376.12521731 199.83139631 405.55986222 205.48333672 431.41162109 220.62817383 C441.88836481 227.29842886 448.19679758 237.80095566 451.03515625 249.73828125 C459.16475368 292.79711455 433.04914254 337.73230127 409.81640625 372.1328125 C403.70918469 381.04643026 397.38728233 389.65912938 390.3515625 397.86328125 C389.1140625 399.35794922 389.1140625 399.35794922 387.8515625 400.8828125 C359.37578441 435.22896563 323.69154637 466.34500726 277.8515625 472.55078125 C276.35335135 472.67811565 274.85289842 472.78056992 273.3515625 472.86328125 C272.42472656 472.91613281 271.49789062 472.96898437 270.54296875 473.0234375 C252.25088468 473.54867837 233.71974379 469.66056722 219.3515625 457.86328125 C218.58070312 457.24066406 217.80984375 456.61804688 217.015625 455.9765625 C205.26811641 445.45191744 200.11002049 430.01319478 199.1484375 414.609375 C199.0520654 408.32109551 199.57884153 402.1002434 200.3515625 395.86328125 C196.85739006 399.26186842 193.46955023 402.6760973 190.3515625 406.42578125 C161.42847143 439.71947275 121.18648883 459.30980682 77.3515625 462.86328125 C39.19202204 464.64431243 39.19202204 464.64431243 27.46484375 454.1796875 C20.46087548 446.8820518 17.37723362 437.7542683 17.03515625 427.78515625 C16.99326172 426.625 16.95136719 425.46484375 16.90820312 424.26953125 C16.84922852 422.4596875 16.84922852 422.4596875 16.7890625 420.61328125 C16.72428711 418.78023437 16.72428711 418.78023437 16.65820312 416.91015625 C16.55218895 413.89464205 16.45012314 410.87904677 16.3515625 407.86328125 C9.1080305 411.80429106 2.08664971 415.88063776 -4.5859375 420.73828125 C-5.16408203 421.15916016 -5.74222656 421.58003906 -6.33789062 422.01367188 C-7.2128418 422.65079102 -7.2128418 422.65079102 -8.10546875 423.30078125 C-36.60993286 444.03701306 -70.51300004 466.71408731 -107.3984375 462.23828125 C-112.92095803 461.20688853 -117.79030605 459.69719126 -122.6484375 456.86328125 C-123.67710937 456.26580078 -123.67710937 456.26580078 -124.7265625 455.65625 C-133.60421439 449.77734694 -137.92857007 440.8253341 -140.23828125 430.6875 C-140.6710004 427.70791959 -140.72393731 424.86995013 -140.6484375 421.86328125 C-150.83094225 426.04538142 -160.32262714 431.62229534 -169.72265625 437.3203125 C-184.08052241 446.00671863 -198.83982306 453.49995893 -214.7734375 458.86328125 C-216.01528809 459.28130005 -216.01528809 459.28130005 -217.28222656 459.70776367 C-236.13001112 465.74547582 -257.23231198 466.80159219 -275.50390625 458.578125 C-283.5193504 454.32769007 -287.70480375 448.34479588 -290.4609375 439.80078125 C-298.2794709 412.08052646 -288.79752275 380.37670577 -280.6484375 353.86328125 C-281.62554688 354.19199219 -282.60265625 354.52070313 -283.609375 354.859375 C-294.33493978 358.39100981 -305.17913345 361.45022913 -316.0859375 364.36328125 C-316.81205231 364.55890656 -317.53816711 364.75453186 -318.2862854 364.95608521 C-326.06521837 367.04420112 -333.81723188 368.97773456 -341.75 370.38671875 C-343.01142822 370.61939453 -344.27285645 370.85207031 -345.57250977 371.09179688 C-347.91773946 371.50850279 -350.27007994 371.88778232 -352.62866211 372.22070312 C-361.90950296 373.8746445 -365.34266366 378.39637672 -370.6484375 385.86328125 C-371.80726764 387.20908932 -372.98982264 388.53511798 -374.203125 389.83203125 C-374.74952637 390.41726563 -375.29592773 391.0025 -375.85888672 391.60546875 C-376.40818848 392.18554688 -376.95749023 392.765625 -377.5234375 393.36328125 C-378.11785645 393.99492188 -378.71227539 394.6265625 -379.32470703 395.27734375 C-386.44603092 402.81240989 -393.61968328 410.28715367 -401.5234375 417.01171875 C-404.11242695 419.26756618 -406.58757293 421.63248639 -409.0859375 423.98828125 C-435.94138074 448.88515319 -469.66947233 467.15523422 -507.18359375 466.1484375 C-518.29318659 465.23411926 -528.61243125 462.87410555 -538.6484375 457.86328125 C-539.49792969 457.44433594 -540.34742188 457.02539062 -541.22265625 456.59375 C-556.34228945 448.35746629 -566.18409565 433.87460645 -571.6484375 417.86328125 C-573.68134625 410.63798472 -575.18335542 403.36096815 -575.6484375 395.86328125 C-575.72771484 394.89648438 -575.72771484 394.89648438 -575.80859375 393.91015625 C-576.87408797 369.63541846 -564.84533656 342.7302295 -553.6484375 321.86328125 C-554.6384375 322.35828125 -555.6284375 322.85328125 -556.6484375 323.36328125 C-563.44363613 326.17882172 -568.45953711 325.13568574 -575.2109375 322.73828125 C-584.18018718 319.01578341 -588.52308614 315.08959719 -592.703125 306.328125 C-597.46441874 293.91334669 -593.46819269 281.50113659 -588.8984375 269.67578125 C-586.70780033 263.78394815 -586.27930879 259.97170166 -587.6484375 253.86328125 C-603.0987268 251.03072821 -618.07478759 258.93619846 -630.9609375 266.9140625 C-651.22072922 281.27434101 -665.94876979 300.19772012 -677.6484375 321.86328125 C-678.10154297 322.7022998 -678.55464844 323.54131836 -679.02148438 324.40576172 C-694.61978204 353.6819905 -705.79512085 385.15015015 -717.58251953 416.08584595 C-718.78229868 419.2244932 -719.99297542 422.35877005 -721.20507812 425.49267578 C-722.91763729 429.9252883 -724.57132145 434.37571384 -726.20117188 438.83935547 C-727.05271217 441.10669828 -727.90490544 443.37379597 -728.7578125 445.640625 C-729.13004944 446.69286758 -729.50228638 447.74511017 -729.88580322 448.82923889 C-732.15086884 454.75026978 -734.1221447 458.07381123 -739.82012939 461.05230713 C-740.42347107 461.31992859 -741.02681274 461.58755005 -741.6484375 461.86328125 C-742.4940625 462.24097656 -743.3396875 462.61867188 -744.2109375 463.0078125 C-758.06916363 466.80549947 -777.5888073 467.68990613 -790.6484375 460.86328125 C-794.22991681 458.36625608 -797.66719563 455.825765 -799.6484375 451.86328125 C-799.77101211 449.90778869 -799.82396138 447.94757507 -799.8359375 445.98828125 C-799.85011719 444.93898438 -799.86429688 443.8896875 -799.87890625 442.80859375 C-799.65348687 439.92781054 -799.13808067 438.30087917 -797.6484375 435.86328125 C-798.06351563 436.24097656 -798.47859375 436.61867188 -798.90625 437.0078125 C-815.78701274 452.08748968 -831.92346135 464.32199302 -855.60693359 463.05859375 C-865.37756931 462.12382831 -873.21257241 456.64742605 -879.8359375 449.73828125 C-891.58049926 435.21715191 -891.83485377 414.35768034 -891.7109375 396.67578125 C-891.70642578 395.43763672 -891.70191406 394.19949219 -891.69726562 392.92382812 C-891.68560449 389.9035934 -891.66923986 386.88346448 -891.6484375 383.86328125 C-892.18484863 384.55349365 -892.72125977 385.24370605 -893.27392578 385.95483398 C-903.36489344 398.82736785 -915.02992624 409.83546994 -928.06982422 419.65625 C-930.4200693 421.45328243 -932.68751595 423.34547779 -934.9609375 425.23828125 C-946.42850103 434.6622878 -958.26489135 443.67466136 -970.6484375 451.86328125 C-971.20015625 452.22824707 -971.751875 452.59321289 -972.3203125 452.96923828 C-989.96603143 464.53912337 -1009.06592847 466.50569671 -1029.7734375 462.67578125 C-1047.66164189 458.36203285 -1061.21478681 450.25028125 -1071.6484375 434.86328125 C-1083.17315012 415.56255373 -1084.26597738 392.52029746 -1079.18310547 370.96972656 C-1072.48105638 344.56548932 -1058.69109144 321.57282996 -1042.6484375 299.86328125 C-1042.16584473 299.2079541 -1041.68325195 298.55262695 -1041.18603516 297.87744141 C-1034.89355394 289.35051206 -1028.4574638 280.98715401 -1021.6484375 272.86328125 C-1020.78858711 271.81679667 -1019.92923357 270.76990372 -1019.0703125 269.72265625 C-1009.60186634 258.25563856 -999.43118862 247.97309346 -987.6484375 238.86328125 C-986.92011719 238.29625488 -986.19179687 237.72922852 -985.44140625 237.14501953 C-968.85161268 224.25617872 -951.97979849 211.21334557 -933.6484375 200.86328125 C-932.54242187 200.23558838 -932.54242187 200.23558838 -931.4140625 199.59521484 C-896.34750193 179.91913319 -852.58886413 168.39489028 -812.75 179.38525391 C-799.58458908 183.27876025 -787.86922403 189.66457338 -777.6484375 198.86328125 C-776.98070312 199.44980469 -776.31296875 200.03632813 -775.625 200.640625 C-770.51324688 205.39649658 -767.12719868 209.92460682 -766.26953125 216.98046875 C-766.03149063 223.63024874 -766.24103812 229.5968125 -770.6484375 234.86328125 C-775.21162481 239.05846959 -780.06695381 240.69403431 -786.2109375 240.984375 C-793.85926852 240.60440984 -798.48859395 236.56301668 -804.19921875 231.796875 C-814.61879299 223.57089534 -826.88447663 222.77860219 -839.6484375 223.86328125 C-869.84378724 228.34624538 -896.56205439 248.37476112 -920.3203125 266.13037109 C-922.53538474 267.77913187 -924.76150921 269.41150487 -926.9921875 271.0390625 C-934.76271577 276.73537507 -942.02667597 282.63852618 -949.00146484 289.30175781 C-950.88475868 291.08734147 -952.79072022 292.84685696 -954.69921875 294.60546875 C-956.12000383 295.92034371 -957.54057828 297.23544629 -958.9609375 298.55078125 C-959.61900391 299.15639893 -960.27707031 299.7620166 -960.95507812 300.38598633 C-964.91236247 304.07668415 -968.54833229 307.92214722 -972.06958008 312.03051758 C-974.08902821 314.37472619 -976.21406721 316.61180283 -978.3359375 318.86328125 C-996.63634888 338.99651077 -1018.16682129 367.81163318 -1017.9375 396.1328125 C-1017.4973697 400.29025951 -1016.13654149 402.52211303 -1013.6484375 405.86328125 C-1009.61489467 408.5523098 -1006.305644 408.5099244 -1001.6484375 407.86328125 C-981.40058539 402.04590672 -963.57042113 384.04439133 -947.6484375 370.86328125 C-945.85719142 369.40443135 -944.06551394 367.94611101 -942.2734375 366.48828125 C-928.17943943 354.9368084 -914.69279035 342.97378238 -901.7734375 330.11328125 C-900.7210791 329.06793213 -900.7210791 329.06793213 -899.64746094 328.00146484 C-895.66648201 324.00818142 -891.86720391 319.91086899 -888.18505859 315.640625 C-886.30237074 313.46300066 -884.35149075 311.35280741 -882.3984375 309.23828125 C-877.37364867 303.66271455 -872.78311502 297.7945451 -868.19775391 291.85839844 C-866.55141903 289.73834666 -864.88849456 287.6320995 -863.22265625 285.52734375 C-857.51349249 278.28935971 -851.97612846 271.018341 -846.8359375 263.36328125 C-833.8223065 244.16330392 -833.8223065 244.16330392 -822.6484375 241.86328125 C-814.39222422 240.95541821 -807.27707828 241.52769492 -800.453125 246.4453125 C-794.54111714 251.30841574 -792.54673827 255.31185653 -791.7734375 262.98828125 C-791.65226562 264.02210938 -791.53109375 265.0559375 -791.40625 266.12109375 C-792.12879122 277.28552091 -798.62119083 285.86901503 -804.78189087 294.76776123 C-807.30522209 298.41860203 -809.78384295 302.0994654 -812.26171875 305.78125 C-812.74237289 306.49464539 -813.22302704 307.20804077 -813.71824646 307.9430542 C-818.89074979 315.65599271 -823.4852687 323.56489778 -827.6484375 331.86328125 C-828.02178223 332.58451172 -828.39512695 333.30574219 -828.77978516 334.04882812 C-839.12385891 354.10639744 -850.42062095 379.82136933 -847.6484375 402.86328125 C-846.39312193 406.14596094 -844.86796948 408.25351526 -841.6484375 409.86328125 C-824.10465628 410.39261948 -809.02960631 393.54410288 -796.6484375 382.86328125 C-795.90851563 382.22519531 -795.16859375 381.58710937 -794.40625 380.9296875 C-792.47677814 379.25205434 -790.56047826 377.56074429 -788.6484375 375.86328125 C-787.87113281 375.17878906 -787.09382813 374.49429687 -786.29296875 373.7890625 C-775.57230609 364.26512497 -766.19460925 354.34783218 -757.6484375 342.86328125 C-757.15553223 342.20408691 -756.66262695 341.54489258 -756.15478516 340.86572266 C-734.23118888 311.32633867 -711.62152667 269.78614981 -714.6484375 231.86328125 C-715.16195553 229.12596906 -715.89401083 226.55092628 -716.6484375 223.86328125 C-717.0565716 220.77902739 -717.24579424 217.92850571 -716.6484375 214.86328125 C-713.21742637 211.05104666 -710.02944474 210.04974567 -705.0546875 209.66015625 C-694.41180328 209.48849683 -684.11476904 210.9511555 -675.6484375 217.86328125 C-670.33151317 223.4600437 -669.16146592 228.77281085 -669.24609375 236.3046875 C-670.01335041 243.09081193 -672.37090262 249.45364737 -674.6484375 255.86328125 C-674.20153564 255.40066895 -673.75463379 254.93805664 -673.29418945 254.46142578 C-664.25185929 245.14480504 -655.33682097 236.27917201 -644.6484375 228.86328125 C-644.10155273 228.48268555 -643.55466797 228.10208984 -642.99121094 227.70996094 C-619.56457548 211.5746126 -595.55485127 203.85821292 -566.828125 207.32421875 C-563.9696486 207.97214007 -561.37040481 208.78025946 -558.6484375 209.86328125 C-557.66230469 210.25386719 -556.67617187 210.64445313 -555.66015625 211.046875 C-542.56764166 216.91937519 -533.2882387 226.68977221 -527.37109375 239.6640625 C-523.66738611 249.40441817 -523.56889401 259.54251399 -523.6484375 269.86328125 C-522.95878906 269.04085938 -522.26914063 268.2184375 -521.55859375 267.37109375 C-510.11387409 253.75910841 -498.63622943 240.92852533 -484.6484375 229.86328125 C-483.63652344 229.04601562 -482.62460938 228.22875 -481.58203125 227.38671875 C-459.57753691 209.81855944 -432.12678631 195.38720627 -403.6484375 193.86328125 C-402.89820313 193.82203125 -402.14796875 193.78078125 -401.375 193.73828125 C-378.14003471 193.12074064 -355.33459807 200.70823489 -337.6484375 215.86328125 C-336.81441406 216.55292969 -335.98039062 217.24257813 -335.12109375 217.953125 C-324.39971225 227.12675819 -316.69621438 238.61158157 -314.6484375 252.86328125 C-312.69174089 280.93567675 -322.5792804 303.67783181 -337.6484375 326.86328125 C-298.73257271 318.27794286 -298.73257271 318.27794286 -265.11132812 298.02197266 C-263.6484375 296.86328125 -263.6484375 296.86328125 -261.6484375 296.86328125 C-261.35703888 296.27473358 -261.06564026 295.68618591 -260.76541138 295.07980347 C-259.80251613 293.16903479 -258.79386839 291.28144774 -257.77685547 289.39892578 C-255.04535375 283.92126313 -253.37313988 278.13389718 -251.59375 272.29296875 C-251.01441931 270.42670281 -250.43506932 268.56044272 -249.85486412 266.69444847 C-249.24345964 264.72557862 -248.63482046 262.7558698 -248.02661133 260.78601074 C-237.72631003 227.46822427 -227.21358472 194.16826193 -211.6484375 162.86328125 C-211.05482422 161.65164307 -211.05482422 161.65164307 -210.44921875 160.41552734 C-196.32893779 131.78208384 -177.60095018 104.53532115 -158.6484375 78.86328125 C-157.91882812 77.87199219 -157.18921875 76.88070312 -156.4375 75.859375 C-144.77164948 60.16164281 -132.80328082 44.4200326 -118.6484375 30.86328125 C-117.8028125 30.01765625 -116.9571875 29.17203125 -116.0859375 28.30078125 C-115.2815625 27.49640625 -114.4771875 26.69203125 -113.6484375 25.86328125 C-113.20886719 25.37730469 -112.76929687 24.89132813 -112.31640625 24.390625 C-85.18800252 -4.66080482 -35.25932575 -28.44668317 0 0 Z M-73.6484375 52.86328125 C-74.39351562 53.52714844 -75.13859375 54.19101563 -75.90625 54.875 C-83.84219458 62.38990572 -90.17216008 71.10082645 -96.6484375 79.86328125 C-97.80987339 81.42579793 -98.97133188 82.98829782 -100.1328125 84.55078125 C-103.08035161 88.52579748 -106.00629422 92.5162012 -108.92529297 96.51220703 C-110.5957049 98.79133241 -112.2789659 101.06042652 -113.96484375 103.328125 C-134.77704745 131.48544527 -150.83759865 162.71628472 -166.6484375 193.86328125 C-166.97948486 194.51441895 -167.31053223 195.16555664 -167.65161133 195.83642578 C-177.05427203 214.33516319 -186.113988 232.94590702 -194.6484375 251.86328125 C-190.42282187 251.86328125 -188.48013882 249.46496004 -185.4609375 246.80078125 C-184.87578369 246.29417969 -184.29062988 245.78757812 -183.68774414 245.265625 C-182.00251721 243.80430282 -180.32534441 242.33413204 -178.6484375 240.86328125 C-177.55402344 239.92162109 -177.55402344 239.92162109 -176.4375 238.9609375 C-174.49019873 237.28067122 -172.56674216 235.57657625 -170.6484375 233.86328125 C-169.82859375 233.13625 -169.00875 232.40921875 -168.1640625 231.66015625 C-161.53156451 225.68724369 -155.15717476 219.47690853 -148.8359375 213.17578125 C-148.03567139 212.38010742 -147.23540527 211.58443359 -146.41088867 210.76464844 C-142.18577485 206.52853516 -138.1211149 202.21424803 -134.21899414 197.67895508 C-131.96681678 195.07527981 -129.61988785 192.56986833 -127.2734375 190.05078125 C-123.05890524 185.48377914 -119.04547137 180.80048763 -115.1484375 175.95703125 C-113.24939103 173.60696125 -111.33385054 171.27684503 -109.3984375 168.95703125 C-101.4994982 159.47742594 -93.93994761 149.81647371 -86.6484375 139.86328125 C-85.85373047 138.78626953 -85.85373047 138.78626953 -85.04296875 137.6875 C-53.52123621 97.32265978 -53.52123621 97.32265978 -39.21484375 49.921875 C-39.76250942 47.32169654 -40.5405173 46.45380286 -42.6484375 44.86328125 C-44.54394362 44.08261176 -44.54394362 44.08261176 -46.5859375 43.67578125 C-47.25496094 43.51722656 -47.92398438 43.35867187 -48.61328125 43.1953125 C-58.01802722 41.66094895 -66.86100136 46.80212719 -73.6484375 52.86328125 Z M-435.2890625 260.65625 C-437.31716873 262.55340235 -439.39047883 264.33728467 -441.5234375 266.11328125 C-446.81159595 270.7204696 -451.41936975 275.9873149 -456.11816406 281.18017578 C-457.58360767 282.79197672 -459.06196894 284.39050826 -460.546875 285.984375 C-466.51680548 292.40155736 -472.21804236 298.9795592 -477.6484375 305.86328125 C-478.37933594 306.78536377 -478.37933594 306.78536377 -479.125 307.72607422 C-507.80785224 343.93638837 -507.80785224 343.93638837 -516.6484375 387.86328125 C-514.8550181 396.10331633 -510.43268058 401.06354465 -503.6484375 405.86328125 C-496.49043039 410.19417631 -489.0702667 410.41129073 -481.15234375 408.5859375 C-456.72571179 401.53612952 -436.69658289 379.33735175 -421.6484375 359.86328125 C-420.71403816 358.714918 -419.77630221 357.56926474 -418.8359375 356.42578125 C-399.5601922 332.90210047 -372.57223516 298.83545912 -373.6484375 266.86328125 C-374.85852863 259.40493109 -378.61328152 253.89971599 -384.60546875 249.390625 C-402.98328297 237.33787112 -420.87400463 247.15892097 -435.2890625 260.65625 Z M345.3515625 255.86328125 C344.475 256.26417969 343.5984375 256.66507812 342.6953125 257.078125 C327.24792903 264.73523319 314.24219954 278.70885438 303.66015625 291.98828125 C301.58879788 294.56784092 299.46968393 297.08979069 297.31665039 299.60058594 C275.2694285 325.34345181 252.46627239 357.273163 253.09765625 392.71484375 C253.67444904 399.86707433 255.70072454 406.30811368 260.3515625 411.86328125 C267.34764324 417.75471766 273.29194967 418.59233885 282.3515625 417.86328125 C298.23166878 414.69154612 311.63981043 404.48740089 323.3515625 393.86328125 C324.19589844 393.13882813 325.04023438 392.414375 325.91015625 391.66796875 C330.13057126 388.0382695 333.91793275 384.27141587 337.50390625 380.015625 C338.79132185 378.51590831 340.12078909 377.05171192 341.48046875 375.6171875 C353.47488961 362.95092099 363.66636061 348.50290644 373.07861328 333.84277344 C374.49063103 331.64702355 375.91980238 329.46282513 377.34765625 327.27734375 C394.57733155 301.13277064 394.57733155 301.13277064 398.3515625 270.86328125 C396.50593416 264.10255711 393.61887632 260.33189935 387.53515625 256.8125 C374.62254109 249.86344096 358.50153222 249.38976221 345.3515625 255.86328125 Z " fill="#AB1A2D" transform="translate(2376.6484375,150.13671875)"/>
<path d="M0 0 C13.27628237 10.52262428 21.05789528 24.28351216 23.07519531 41.07617188 C25.67283973 78.96181658 0.84187021 114.39485323 -22.67089844 141.77929688 C-24.91218027 144.33735562 -27.17073518 146.87223715 -29.47558594 149.37304688 C-31.2937442 151.36590362 -33.05806463 153.38779578 -34.81811523 155.43139648 C-38.55577483 159.70609143 -42.49076823 163.74390232 -46.51074219 167.75195312 C-47.59942345 168.84206947 -47.59942345 168.84206947 -48.71009827 169.95420837 C-50.23413399 171.47891984 -51.75941413 173.00238838 -53.28588867 174.5246582 C-55.60222307 176.83563579 -57.91316921 179.15190458 -60.22363281 181.46875 C-61.71484878 182.95930508 -63.20637496 184.44954988 -64.69824219 185.93945312 C-65.37870102 186.62193619 -66.05915985 187.30441925 -66.76023865 188.00758362 C-70.6840441 191.91257793 -74.70957535 195.64221102 -78.90631104 199.25282288 C-81.49271093 201.490214 -83.98096053 203.82335472 -86.48339844 206.15429688 C-91.13613351 210.45866726 -95.95006232 214.49241724 -100.88964844 218.46679688 C-103.91109032 220.97900698 -106.79531616 223.60330514 -109.67089844 226.27929688 C-113.40419322 229.75346837 -117.19460687 233.07998182 -121.17089844 236.27929688 C-126.19694973 240.32624726 -130.93233034 244.61022505 -135.65136719 249.00585938 C-137.91330714 251.10426252 -140.22128034 253.14179029 -142.54980469 255.16601562 C-146.58625861 258.68387244 -150.51874424 262.30101944 -154.42089844 265.96679688 C-155.11119141 266.61390625 -155.80148437 267.26101563 -156.51269531 267.92773438 C-161.7317463 272.84262235 -166.81747681 277.87050063 -171.82714844 282.99804688 C-173.8842265 285.00991443 -175.92479732 286.87112705 -178.10864258 288.73022461 C-183.80491506 293.69793701 -189.14449323 299.02817937 -194.51074219 304.34570312 C-195.34342715 305.17040257 -195.34342715 305.17040257 -196.19293404 306.01176262 C-199.13075067 308.92302435 -202.0649948 311.83783855 -204.99682617 314.75512695 C-207.39583214 317.14082179 -209.80188192 319.51904358 -212.21459961 321.89086914 C-215.15951368 324.78591588 -218.09144368 327.69355968 -221.01504707 330.61012077 C-222.11693534 331.70538882 -223.22299707 332.79647796 -224.33366203 333.88284492 C-234.64242369 343.9787975 -242.54127353 355.02561472 -248.29589844 368.34179688 C-248.66287842 369.17694824 -249.0298584 370.01209961 -249.40795898 370.87255859 C-260.51805052 396.73428913 -271.61460134 430.90679632 -261.67089844 458.77929688 C-256.60653122 471.05064822 -248.20793957 477.89271273 -236.26074219 483.30273438 C-219.09441574 490.36353024 -198.72816555 489.86914024 -181.54003906 482.91748047 C-164.56854255 475.45266167 -152.04287481 463.90152311 -138.91308594 451.08789062 C-126.60509723 439.4095185 -114.04899652 434.41134977 -97.17089844 434.46679688 C-96.18992187 434.45068359 -95.20894531 434.43457031 -94.19824219 434.41796875 C-87.48072796 434.41349637 -80.40166393 434.7786256 -74.95800781 439.15698242 C-73.12099401 441.47241427 -73.07361533 443.66850035 -73.20996094 446.55273438 C-76.85051602 464.13846656 -103.10646665 481.55416798 -116.67089844 491.77929688 C-117.3542627 492.29782227 -118.03762695 492.81634766 -118.74169922 493.35058594 C-149.91985562 516.88100305 -187.9115941 536.85827631 -227.67089844 538.77929688 C-229.06888672 538.85857422 -229.06888672 538.85857422 -230.49511719 538.93945312 C-253.5061846 539.6171158 -277.35502311 534.38960675 -294.60839844 518.40429688 C-311.44240654 499.91657009 -312.56331752 477.22995001 -311.86181641 453.53027344 C-311.01545715 436.90180329 -306.34234686 421.05107642 -301.42773438 405.23632812 C-300.4606248 402.09665369 -299.55830089 398.94231553 -298.67089844 395.77929688 C-300.02847018 397.10916307 -301.3817334 398.44342759 -302.73339844 399.77929688 C-303.86455078 400.89304687 -303.86455078 400.89304687 -305.01855469 402.02929688 C-307.08532275 404.17216096 -309.04063657 406.33644762 -310.98339844 408.58789062 C-314.68582912 412.85311479 -318.60431104 416.86087681 -322.60839844 420.84179688 C-323.27291016 421.51017578 -323.93742187 422.17855469 -324.62207031 422.8671875 C-328.5712313 426.80868765 -332.6311435 430.56058241 -336.85571289 434.20483398 C-339.22185282 436.25718588 -341.5052524 438.39332469 -343.79589844 440.52929688 C-349.00594651 445.28005696 -354.45194787 449.63549408 -360.03027344 453.94335938 C-362.42753333 455.7969504 -364.78873897 457.68418473 -367.12402344 459.61523438 C-432.13171015 513.20473032 -513.52120853 544.84516432 -598.12060547 537.13867188 C-634.01914859 533.50487628 -671.16262161 525.02197568 -699.67089844 501.77929688 C-700.87166016 500.82603516 -700.87166016 500.82603516 -702.09667969 499.85351562 C-717.38928211 487.09647422 -725.6957058 469.15112548 -729.42089844 449.90429688 C-732.72309096 412.21097738 -716.91721367 376.67796958 -693.67089844 347.77929688 C-692.87683594 346.7815625 -692.08277344 345.78382813 -691.26464844 344.75585938 C-679.67632653 330.4821945 -666.52429699 317.61113989 -651.67089844 306.77929688 C-651.09243164 306.35068359 -650.51396484 305.92207031 -649.91796875 305.48046875 C-641.77703123 299.45446867 -633.42853445 293.87902477 -624.67089844 288.77929688 C-623.97851074 288.37098633 -623.28612305 287.96267578 -622.57275391 287.54199219 C-602.08901764 275.5460902 -580.30244565 266.81862101 -557.67089844 259.77929688 C-562.39507034 258.36909631 -567.12896188 257.20438018 -571.94018555 256.1315918 C-597.31002875 250.40486445 -621.87827705 240.1442742 -636.79980469 217.55664062 C-647.21844098 200.60851653 -650.50116045 180.59800727 -646.67089844 161.02929688 C-637.97745347 129.38353225 -610.23250654 106.81419786 -583.04589844 90.96679688 C-574.74283574 86.24865232 -566.32299295 81.8212342 -557.67089844 77.77929688 C-556.85234375 77.39418945 -556.03378906 77.00908203 -555.19042969 76.61230469 C-505.85579666 53.6392721 -450.4671469 45.58787012 -396.35839844 45.52929688 C-395.60475006 45.52795746 -394.85110168 45.52661804 -394.07461548 45.52523804 C-378.81252999 45.53092487 -363.59431056 46.24802379 -348.35839844 47.09179688 C-346.70655045 47.18007751 -346.70655045 47.18007751 -345.02133179 47.2701416 C-324.9621757 48.36213749 -304.785352 49.91847166 -285.17089844 54.46679688 C-284.06125732 54.72025879 -282.95161621 54.9737207 -281.80834961 55.23486328 C-259.34276053 60.55335181 -232.65417512 67.9156347 -216.67089844 85.77929688 C-215.94902344 86.56304687 -215.22714844 87.34679687 -214.48339844 88.15429688 C-209.78775859 94.95487873 -209.95444656 102.77891763 -210.67089844 110.77929688 C-212.48257874 119.94089539 -216.86467228 126.6129508 -222.67089844 133.77929688 C-223.11949219 134.39160156 -223.56808594 135.00390625 -224.03027344 135.63476562 C-243.93694217 161.50114691 -291.89740521 187.07345907 -323.34277344 194.61523438 C-329.34901824 195.03849324 -333.08886341 194.67790192 -337.67089844 190.71679688 C-339.02242734 189.42304123 -340.3553028 188.10957585 -341.67089844 186.77929688 C-342.36787842 186.09810791 -343.0648584 185.41691895 -343.78295898 184.71508789 C-359.83337863 168.89747349 -359.83337863 168.89747349 -361.23339844 160.34179688 C-360.33307003 154.63971698 -356.82030482 151.43659231 -352.32495117 147.97045898 C-349.6157531 146.08694069 -346.87268475 144.26843734 -344.10839844 142.46679688 C-342.13789011 141.15041472 -340.16913305 139.83140724 -338.20214844 138.50976562 C-337.25339844 137.87345215 -336.30464844 137.23713867 -335.32714844 136.58154297 C-321.91071709 128.14981138 -321.91071709 128.14981138 -313.98339844 115.15429688 C-315.07019781 111.39989903 -317.4508457 109.70501469 -320.67089844 107.77929688 C-334.3025222 100.91462613 -351.68844032 100.25825658 -366.67089844 99.77929688 C-367.9096875 99.73804688 -369.14847656 99.69679688 -370.42480469 99.65429688 C-428.10409909 98.73784334 -502.71257025 110.6692065 -547.67089844 149.77929688 C-548.30511719 150.33101562 -548.93933594 150.88273438 -549.59277344 151.45117188 C-556.11442723 157.52690062 -560.36925036 164.3161434 -560.78808594 173.37695312 C-560.35947075 182.16356443 -554.97571291 188.05013937 -548.67089844 193.77929688 C-517.98838195 216.85354708 -476.26055042 217.99229439 -439.54589844 218.02929688 C-438.4763089 218.0316333 -437.40671936 218.03396973 -436.30471802 218.03637695 C-421.21505827 218.04870225 -406.32094535 217.44670884 -391.2984314 216.06716919 C-380.13370461 215.04526541 -369.07208749 214.46941472 -357.85839844 214.46679688 C-356.55314209 214.46164062 -355.24788574 214.45648438 -353.90307617 214.45117188 C-335.75249738 214.58570068 -335.75249738 214.58570068 -329.11230469 221.04101562 C-323.90840825 227.31671729 -324.29533726 234.3989198 -324.17480469 242.19335938 C-325.02213201 248.31813485 -328.6766933 252.39838565 -333.35449219 256.15820312 C-357.31883238 272.92920006 -388.76237572 278.94187365 -416.64746094 286.14648438 C-418.40002953 286.59943626 -418.40002953 286.59943626 -420.18800354 287.0615387 C-426.07907518 288.5820941 -431.97210662 290.09429994 -437.86889648 291.5925293 C-458.31326606 296.80857017 -478.44246606 302.45632858 -497.98339844 310.46679688 C-498.72037964 310.76576874 -499.45736084 311.0647406 -500.2166748 311.37277222 C-531.73479511 324.16325346 -563.58578705 338.50191148 -589.67089844 360.77929688 C-590.50105469 361.48699219 -591.33121094 362.1946875 -592.18652344 362.92382812 C-606.09829125 375.10729349 -619.6915055 390.75100389 -621.04589844 410.07226562 C-621.61224737 424.00178773 -618.96059695 435.98264521 -609.67089844 446.77929688 C-598.56036308 458.82570886 -580.84830077 464.1263881 -564.83764648 464.91967773 C-480.59181002 467.46144137 -399.18473995 426.05931431 -338.77636719 369.66210938 C-336.7576485 367.77881175 -334.72120966 365.91975164 -332.65917969 364.08398438 C-327.93627654 359.87009807 -323.46433121 355.66083379 -319.39355469 350.81054688 C-317.49023505 348.56626975 -315.48926655 346.43228591 -313.48339844 344.27929688 C-287.60196259 315.46871204 -269.64772295 279.99679896 -251.46777344 246.12304688 C-249.7480324 242.92283311 -248.02312605 239.72547508 -246.29589844 236.52929688 C-233.17224375 212.23576325 -220.25285371 187.83443488 -207.54980469 163.31835938 C-204.93137739 158.26909361 -202.27296146 153.24181229 -199.60839844 148.21679688 C-196.42814306 142.21821937 -193.36628293 136.17087757 -190.36450195 130.08105469 C-174.82414424 98.59224429 -156.93365917 68.21738994 -133.67089844 41.77929688 C-133.1373877 41.16111084 -132.60387695 40.5429248 -132.05419922 39.90600586 C-115.3062185 20.55596425 -96.34399911 3.11615071 -72.10839844 -6.03320312 C-70.95718506 -6.46898682 -70.95718506 -6.46898682 -69.78271484 -6.91357422 C-47.5804115 -14.88230425 -19.50122583 -14.24695049 0 0 Z M-86.67089844 65.77929688 C-87.31414062 66.35035156 -87.95738281 66.92140625 -88.62011719 67.50976562 C-108.3363204 85.57261846 -120.99455534 112.81969203 -134.47094727 135.63330078 C-139.74314212 144.55600761 -145.0847363 153.43261342 -150.48339844 162.27929688 C-157.39340511 173.61138335 -164.12270649 185.04059021 -170.77880859 196.5234375 C-174.07500215 202.1954423 -177.39399873 207.85408231 -180.71264648 213.51296997 C-181.83388921 215.4250018 -182.95458222 217.33735496 -184.07519531 219.24975586 C-184.76721977 220.43019503 -185.45927554 221.61061585 -186.15136719 222.79101562 C-187.06245239 224.34502075 -187.06245239 224.34502075 -187.99194336 225.93041992 C-189.10586928 227.82054666 -190.25983685 229.68767045 -191.45336914 231.52856445 C-191.85515381 232.27130615 -192.25693848 233.01404785 -192.67089844 233.77929688 C-192.34089844 234.43929687 -192.01089844 235.09929687 -191.67089844 235.77929688 C-188.81243836 232.95026812 -185.9599486 230.11528908 -183.10839844 227.27929688 C-182.30853516 226.4878125 -181.50867188 225.69632813 -180.68457031 224.88085938 C-179.89501953 224.09453125 -179.10546875 223.30820312 -178.29199219 222.49804688 C-177.57454834 221.78583984 -176.85710449 221.07363281 -176.11791992 220.33984375 C-174.1838571 218.31605338 -172.35862471 216.26740837 -170.53833008 214.14453125 C-166.44528984 209.43583729 -162.0552632 205.04951255 -157.62573242 200.65896606 C-156.13375601 199.17997778 -154.6451229 197.69769186 -153.15722656 196.21459961 C-149.46421689 192.53482301 -145.76572731 188.8605706 -142.06738281 185.18615723 C-138.9301954 182.06884059 -135.79516242 178.949386 -132.6628418 175.82717896 C-131.20991936 174.38064619 -129.75397563 172.93720521 -128.29785156 171.49389648 C-123.80628532 167.01885521 -119.47511579 162.49283609 -115.34765625 157.6809082 C-112.32027828 154.24755832 -109.0509703 151.05747127 -105.79589844 147.84179688 C-105.06773926 147.11742432 -104.33958008 146.39305176 -103.58935547 145.64672852 C-100.51032893 142.58387264 -97.42531521 139.52707377 -94.34082031 136.46972656 C-92.07374385 134.2208557 -89.80976878 131.96889449 -87.54589844 129.71679688 C-86.86027832 129.0394751 -86.1746582 128.36215332 -85.46826172 127.66430664 C-81.53505681 123.75085932 -77.79872004 119.7310532 -74.19270325 115.51345825 C-72.05428649 113.0766413 -69.71491269 110.87850304 -67.35839844 108.65429688 C-57.01073986 98.39215613 -46.76136617 85.54739996 -46.35839844 70.40429688 C-46.4120341 65.36924919 -47.21143127 62.6127605 -50.67089844 58.77929688 C-54.58209652 55.16896019 -58.06972128 53.14225183 -63.35839844 52.40429688 C-73.4098295 53.54219473 -79.6725731 58.87381831 -86.67089844 65.77929688 Z " fill="#AB1A2D" transform="translate(748.6708984375,61.220703125)"/>
<path d="M0 0 C19.9705122 17.9803041 32.8274465 43.12303247 34.4765625 70.05859375 C34.96709312 93.60406364 23.85088583 113.17547784 8.2890625 129.99609375 C7.82516113 130.50382324 7.36125977 131.01155273 6.88330078 131.53466797 C-5.9198883 145.40738903 -21.00052075 155.40394083 -37.7109375 163.99609375 C-38.87367188 164.6096875 -40.03640625 165.22328125 -41.234375 165.85546875 C-75.0734397 182.73628364 -113.50631204 188.65759287 -150.9609375 188.43359375 C-152.03644867 188.4308847 -153.11195984 188.42817566 -154.22006226 188.42538452 C-173.9440209 188.35068701 -193.21887664 186.94580515 -212.7109375 183.99609375 C-213.97550781 183.80885742 -215.24007812 183.62162109 -216.54296875 183.42871094 C-224.97330528 182.15091909 -233.34764086 180.65519532 -241.7109375 178.99609375 C-242.89800293 178.76083984 -244.08506836 178.52558594 -245.30810547 178.28320312 C-283.38278648 170.55923465 -320.83605334 158.87186362 -356.7109375 143.99609375 C-357.24497192 144.95140991 -357.24497192 144.95140991 -357.78979492 145.92602539 C-364.32243275 157.60913571 -370.86540307 169.28584426 -377.4609375 180.93359375 C-382.42926605 189.71284773 -387.35942986 198.51155566 -392.23828125 207.34082031 C-393.96076672 210.44654842 -395.6955732 213.54528169 -397.4296875 216.64453125 C-404.23922845 228.8402926 -410.91236209 241.08993141 -417.2109375 253.55859375 C-417.76885986 254.65236328 -418.32678223 255.74613281 -418.90161133 256.87304688 C-419.40587646 257.88431641 -419.9101416 258.89558594 -420.4296875 259.9375 C-420.87248047 260.82123291 -421.31527344 261.70496582 -421.77148438 262.61547852 C-422.95565582 265.18967442 -422.95565582 265.18967442 -422.7109375 268.99609375 C-415.53423748 271.11910746 -408.51792032 272.68645382 -401.0859375 273.55859375 C-399.55428955 273.74627319 -399.55428955 273.74627319 -397.99169922 273.93774414 C-390.68779608 274.7535553 -383.41094492 275.18913536 -376.0703125 275.48828125 C-374.68454514 275.54631172 -374.68454514 275.54631172 -373.27078247 275.60551453 C-368.60978954 275.79608595 -363.94978465 275.95944891 -359.28662109 276.08618164 C-357.55564723 276.14813165 -355.82468934 276.21053015 -354.09375 276.2734375 C-353.29169128 276.28700287 -352.48963257 276.30056824 -351.66326904 276.31454468 C-346.21212344 276.53664266 -346.21212344 276.53664266 -343.71435547 278.82641602 C-340.75804841 285.21880065 -343.23644909 292.12494224 -345.33203125 298.43359375 C-350.41507692 311.56599503 -358.59055633 326.85673783 -372.04003906 333.00976562 C-382.81092432 336.98731375 -394.16161769 337.50714303 -405.5234375 337.37109375 C-406.22093109 337.36644104 -406.91842468 337.36178833 -407.63705444 337.35699463 C-425.85292104 337.21496971 -441.51173437 333.88806023 -458.7109375 327.99609375 C-458.93136719 328.66253906 -459.15179687 329.32898438 -459.37890625 330.015625 C-461.13354422 333.94169178 -463.51152589 337.2072875 -466.0234375 340.68359375 C-466.55324219 341.42544922 -467.08304688 342.16730469 -467.62890625 342.93164062 C-469.31670494 345.29099302 -471.01254341 347.64435915 -472.7109375 349.99609375 C-473.25282715 350.74713379 -473.7947168 351.49817383 -474.35302734 352.27197266 C-476.51807146 355.27118209 -478.68435188 358.26947754 -480.85498047 361.26464844 C-484.49499153 366.29200081 -488.08372377 371.35266157 -491.6484375 376.43359375 C-501.32894001 390.20585505 -511.36338175 403.7184049 -521.7109375 416.99609375 C-522.57838775 418.12219348 -523.44556775 419.24850143 -524.3125 420.375 C-527.07247547 423.94744231 -529.87811227 427.4812016 -532.7109375 430.99609375 C-533.14583496 431.53830566 -533.58073242 432.08051758 -534.02880859 432.63916016 C-541.90333499 442.35039578 -550.69475474 451.16342319 -559.5234375 459.99609375 C-560.11302246 460.58667572 -560.70260742 461.17725769 -561.31005859 461.78573608 C-567.08700844 467.56158177 -572.85766291 473.29413982 -579.07592773 478.59960938 C-581.39377128 480.57931149 -583.60684389 482.66751771 -585.8359375 484.74609375 C-591.63830231 490.03554233 -597.74137813 494.86561746 -603.96435547 499.64794922 C-605.64033877 500.94160029 -607.30410163 502.24936682 -608.96484375 503.5625 C-639.99238601 527.98681799 -675.60095001 547.11685568 -715.7109375 548.99609375 C-716.86142578 549.05796875 -716.86142578 549.05796875 -718.03515625 549.12109375 C-740.85711885 549.7410452 -765.00864752 544.16303898 -782.65234375 529.078125 C-788.32930761 523.33652777 -791.76642314 517.61233678 -792.0234375 509.49609375 C-791.88958922 499.39798491 -787.71914956 490.89078928 -781.7109375 482.99609375 C-781.0096875 482.00609375 -780.3084375 481.01609375 -779.5859375 479.99609375 C-769.68748498 468.62072926 -754.57235921 461.60452864 -741.0234375 455.62109375 C-693.47903013 434.61028502 -647.37606788 402.45238928 -609.1171875 367.19140625 C-607.11178344 365.3618006 -605.07632756 363.58718851 -603.01953125 361.81640625 C-598.24725784 357.64886537 -593.75032789 353.22702384 -589.2734375 348.74609375 C-588.43377441 347.9063501 -587.59411133 347.06660645 -586.72900391 346.20141602 C-581.70829984 341.13425111 -576.99640191 336.02527637 -572.609375 330.3984375 C-570.57683009 327.82638993 -568.42262368 325.4153614 -566.2109375 322.99609375 C-563.18811329 319.67619889 -560.28581589 316.29845263 -557.4609375 312.80859375 C-553.83830436 308.33394759 -550.11611424 303.96221777 -546.3359375 299.62109375 C-538.14895705 290.21535879 -530.07411801 280.72687727 -522.20703125 271.05078125 C-520.31392 268.734016 -518.41027266 266.42815648 -516.49609375 264.12890625 C-508.87052174 254.95512501 -501.50580931 245.62587467 -494.31542969 236.10791016 C-492.72315957 234.01218032 -491.11469365 231.93005114 -489.5 229.8515625 C-476.45981273 213.03845654 -464.63957238 195.54952145 -453.31884766 177.54150391 C-450.98036406 173.83955584 -448.59832223 170.16662066 -446.2109375 166.49609375 C-436.21669125 151.0983486 -426.41097301 135.5805585 -416.7109375 119.99609375 C-428.16236141 115.99090528 -439.72549388 112.68153336 -451.4609375 109.62109375 C-452.82273132 109.2645874 -452.82273132 109.2645874 -454.21203613 108.90087891 C-479.37658467 102.3414671 -504.83055789 96.81100517 -530.7109375 93.99609375 C-531.8246875 93.86589844 -532.9384375 93.73570312 -534.0859375 93.6015625 C-564.07755516 90.67269359 -598.78137695 91.69832418 -623.3984375 111.24609375 C-624.84298496 112.48794272 -626.28074677 113.73773739 -627.7109375 114.99609375 C-628.53464844 115.62257812 -629.35835937 116.2490625 -630.20703125 116.89453125 C-641.18017447 126.10443929 -647.64464428 140.37114351 -651.5234375 153.87109375 C-651.7184082 154.54092285 -651.91337891 155.21075195 -652.11425781 155.90087891 C-655.98773421 170.50327008 -655.93037102 185.15451017 -655.51904297 200.11694336 C-655.45868348 202.47642894 -655.42318511 204.83530327 -655.390625 207.1953125 C-655.36370575 207.90676926 -655.3367865 208.61822601 -655.30905151 209.35124207 C-655.27247558 212.97081521 -655.61021825 214.8421909 -657.61352539 217.90332031 C-661.40989836 221.69129716 -664.3270641 222.32177255 -669.6484375 222.43359375 C-691.650983 221.99157833 -712.63811591 202.62322823 -727.43481445 187.76416016 C-743.39799599 171.12908854 -751.4366895 150.14535213 -751.17895508 127.21289062 C-750.52634517 107.43932438 -743.32556727 89.2537888 -730.7109375 73.99609375 C-730.02386719 73.14660156 -729.33679688 72.29710937 -728.62890625 71.421875 C-718.9830237 60.07275553 -706.75408903 52.78781276 -693.7109375 45.99609375 C-693.09347656 45.67366699 -692.47601562 45.35124023 -691.83984375 45.01904297 C-625.37382983 10.8748084 -545.16456985 35.77405738 -478.58746338 57.12515259 C-451.78259264 65.77570154 -424.91067663 74.6338271 -398.7109375 84.99609375 C-398.27201172 83.61550781 -398.27201172 83.61550781 -397.82421875 82.20703125 C-396.54256703 78.51047786 -394.742865 75.31493784 -392.7109375 71.99609375 C-392.31503418 71.34527832 -391.91913086 70.69446289 -391.51123047 70.02392578 C-384.22862525 58.21360129 -375.91200382 47.36792181 -366.7109375 36.99609375 C-365.97157959 36.16198975 -365.97157959 36.16198975 -365.21728516 35.31103516 C-302.83534351 -34.61532915 -196.79017137 -65.77682505 0 0 Z M-193.7109375 1.99609375 C-194.77989258 2.1780127 -195.84884766 2.35993164 -196.95019531 2.54736328 C-237.22995003 9.54845765 -274.27504062 27.08904298 -304.37109375 54.84375 C-306.67524334 56.96325989 -309.03089184 59.01044717 -311.3984375 61.05859375 C-315.5591267 64.77065211 -319.16193303 68.70240215 -322.7109375 72.99609375 C-323.17516113 73.54265625 -323.63938477 74.08921875 -324.11767578 74.65234375 C-330.41592899 82.06806065 -336.36812699 89.58533193 -341.5859375 97.80859375 C-342.02075439 98.4840625 -342.45557129 99.15953125 -342.90356445 99.85546875 C-343.92623966 101.51861796 -344.83021339 103.25360848 -345.7109375 104.99609375 C-345.04946436 108.01819788 -345.04946436 108.01819788 -343.06982422 109.06420898 C-342.35068848 109.39106689 -341.63155273 109.7179248 -340.890625 110.0546875 C-340.06175781 110.43439697 -339.23289062 110.81410645 -338.37890625 111.20532227 C-337.45722656 111.61065186 -336.53554687 112.01598145 -335.5859375 112.43359375 C-334.61527344 112.86534912 -333.64460938 113.29710449 -332.64453125 113.74194336 C-286.03766513 134.16881344 -235.63225527 149.96651626 -184.33203125 150.19921875 C-182.76826752 150.20967224 -182.76826752 150.20967224 -181.1729126 150.22033691 C-177.83137924 150.23761481 -174.49001365 150.24405553 -171.1484375 150.24609375 C-169.43643661 150.24760437 -169.43643661 150.24760437 -167.68984985 150.24914551 C-150.82539638 150.2390709 -134.38337988 149.73777127 -117.7109375 146.99609375 C-116.75670898 146.85155762 -115.80248047 146.70702148 -114.81933594 146.55810547 C-85.3629914 142.07561826 -53.57589546 132.74681194 -33.7109375 108.99609375 C-22.64000113 93.92794304 -17.46465469 78.51243386 -20.17578125 59.78515625 C-24.1744824 41.75550962 -35.37647754 27.83282262 -50.7109375 17.99609375 C-73.29004341 4.28887526 -101.10740722 -2.00549938 -127.34375 -2.2421875 C-128.24602829 -2.25193604 -129.14830658 -2.26168457 -130.07792664 -2.27172852 C-151.66239395 -2.45656165 -172.42032064 -1.78207492 -193.7109375 1.99609375 Z " fill="#AB1A2D" transform="translate(1685.7109375,67.00390625)"/>
<path d="M0 0 C6.08636239 4.617208 10.04778247 10.40271416 12.40795898 17.63989258 C13.68873289 29.94880395 11.80914736 39.72269763 4.53295898 49.95239258 C3.51297642 51.19961177 2.47134677 52.42946846 1.40795898 53.63989258 C0.89620117 54.24446289 0.38444336 54.8490332 -0.14282227 55.47192383 C-6.3382917 62.25884619 -14.62831065 67.13813642 -23.84204102 67.91333008 C-35.87910862 68.23933399 -45.25984829 65.41986689 -54.61938477 57.58911133 C-61.54745631 50.7433535 -64.52189151 43.48674207 -64.90454102 33.88989258 C-64.61369718 22.03800627 -60.5931389 10.62424182 -52.52954102 1.88989258 C-36.73232975 -13.03410601 -17.07367574 -12.10046696 0 0 Z " fill="#AB1A2D" transform="translate(2405.592041015625,315.360107421875)"/>
<path d="M0 0 C3.63 0 7.26 0 11 0 C12.57232761 4.6428523 14.13874495 9.28764033 15.69970703 13.93432617 C16.23161236 15.5149515 16.76513164 17.09503465 17.30029297 18.67456055 C18.06902737 20.94439505 18.83194572 23.21611294 19.59375 25.48828125 C19.83436157 26.19463211 20.07497314 26.90098297 20.32287598 27.6287384 C21.29588092 30.54675212 22 32.9013002 22 36 C22.66 36 23.32 36 24 36 C24.23589844 34.7934375 24.47179688 33.586875 24.71484375 32.34375 C26.14937711 25.89277355 28.37287621 19.72641835 30.5625 13.5 C30.97435547 12.30890625 31.38621094 11.1178125 31.81054688 9.890625 C34.86349693 1.13650307 34.86349693 1.13650307 36 0 C38.97 0 41.94 0 45 0 C45 15.51 45 31.02 45 47 C42.69 47 40.38 47 38 47 C37.67 36.77 37.34 26.54 37 16 C33.37 26.23 29.74 36.46 26 47 C23.69 47 21.38 47 19 47 C15.37 36.44 11.74 25.88 8 15 C7.67 25.56 7.34 36.12 7 47 C4.69 47 2.38 47 0 47 C0 31.49 0 15.98 0 0 Z " fill="#AB1A2D" transform="translate(2830,557)"/>
<path d="M0 0 C7.0228125 -0.0928125 7.0228125 -0.0928125 14.1875 -0.1875 C15.65598389 -0.21481201 17.12446777 -0.24212402 18.63745117 -0.27026367 C19.80252197 -0.27775635 20.96759277 -0.28524902 22.16796875 -0.29296875 C23.35672607 -0.3086792 24.5454834 -0.32438965 25.77026367 -0.34057617 C30.08126722 0.11401979 32.61804156 1.71675288 35.75 4.625 C37.96334984 8.83036469 38.79092715 13.42454345 37.375 18.03515625 C35.14985698 22.40199943 32.48435523 24.26740821 28 26 C28.77923828 26.94359375 28.77923828 26.94359375 29.57421875 27.90625 C41 41.9297597 41 41.9297597 41 47 C36.05012061 47.86839989 36.05012061 47.86839989 33 47 C30.11887423 44.0170465 28.13580858 40.53790409 26 37 C24.96031165 35.48409948 23.89965106 33.98223103 22.8125 32.5 C22.36519531 31.8709375 21.91789062 31.241875 21.45703125 30.59375 C17.3563088 26.10824126 13.03287533 26.67031948 7 26 C7 32.93 7 39.86 7 47 C4.69 47 2.38 47 0 47 C0 31.49 0 15.98 0 0 Z M7 6 C7 10.62 7 15.24 7 20 C9.89684158 20.10829314 12.78961019 20.18743954 15.6875 20.25 C16.50412109 20.28351562 17.32074219 20.31703125 18.16210938 20.3515625 C22.26792928 20.41805351 24.45023054 20.32873539 28.05078125 18.17578125 C30.26664185 16.09530385 30.26664185 16.09530385 30.5 12.9375 C29.96206703 9.77714383 29.53923335 8.8555936 27 7 C24.703463 5.8517315 23.41686833 5.88438825 20.8671875 5.90234375 C20.06152344 5.90556641 19.25585938 5.90878906 18.42578125 5.91210938 C17.58402344 5.92048828 16.74226563 5.92886719 15.875 5.9375 C14.60076172 5.94426758 14.60076172 5.94426758 13.30078125 5.95117188 C11.20049091 5.96297126 9.1002367 5.98090694 7 6 Z " fill="#AB1A2D" transform="translate(2884,557)"/>
</svg>
