<?xml version="1.0" encoding="UTF-8"?>
<svg version="1.1" xmlns="http://www.w3.org/2000/svg" width="591" height="296">
<path d="M0 0 C11.22999013 10.7757025 17.40714956 23.41338341 17.84594727 39.00146484 C18.04986954 55.66140082 13.67612194 68.99810545 2.0390625 81.27734375 C-12.19572102 94.41196262 -31.68065481 99.30726548 -50.64453125 98.84765625 C-65.71468193 97.71467891 -79.19307595 93.67235149 -91.4375 84.5625 C-92.46875 83.82 -93.5 83.0775 -94.5625 82.3125 C-98.55646365 78.49218694 -101.48719267 74.21822888 -104.4375 69.5625 C-104.84226562 68.92441406 -105.24703125 68.28632812 -105.6640625 67.62890625 C-112.88193977 54.81855155 -112.82677061 39.00492605 -109.5390625 25.0859375 C-104.53510629 9.08037545 -94.00712688 -1.79549322 -79.4375 -9.4375 C-53.95230363 -21.16696888 -21.55156141 -18.65657555 0 0 Z M-69.4375 19.5625 C-75.70877662 29.02498321 -77.65040673 39.4654236 -75.4375 50.5625 C-72.89084127 59.1159516 -67.63399112 66.01108665 -59.9375 70.5625 C-52.68875106 73.82720372 -44.31306375 73.86449714 -36.6875 71.828125 C-34.44514523 70.90391121 -32.48270109 69.86124584 -30.4375 68.5625 C-29.385625 67.9025 -28.33375 67.2425 -27.25 66.5625 C-21.15400857 61.11356912 -17.87099876 51.989571 -17.234375 44.01953125 C-17.04798398 33.5039711 -19.25552589 25.41012049 -26.4375 17.5625 C-32.47319175 11.43100362 -37.93946857 9.39456214 -46.375 9.1875 C-56.27743849 9.44946927 -62.80469572 12.00650027 -69.4375 19.5625 Z " fill="#ED1A3B" transform="translate(146.4375,57.4375)"/>
<path d="M0 0 C7.92054382 -0.07021166 15.84095273 -0.12316573 23.76173306 -0.15543652 C27.44161078 -0.17094252 31.12127214 -0.19189626 34.80102539 -0.22631836 C83.28088431 -0.66775029 83.28088431 -0.66775029 98 13 C105.68231869 21.32251192 106.7121265 31.01124191 106.34765625 41.8984375 C105.73505521 51.52000657 100.90281549 59.32136891 94.03515625 65.875 C80.59100843 77.1554423 63.28166588 79.50144907 46.2890625 79.29296875 C44.94144165 79.28735243 43.59381455 79.28309201 42.2461853 79.28010559 C38.75108004 79.26881647 35.25636704 79.23949354 31.76141357 79.20599365 C28.17432965 79.17494242 24.58718045 79.16152651 21 79.14648438 C13.99982701 79.11460281 6.99998089 79.06197205 0 79 C0 74.38 0 69.76 0 65 C5 64 5 64 15 64 C15 48.16 15 32.32 15 16 C8.07 15.505 8.07 15.505 1 15 C0 14 0 14 -0.09765625 10.83984375 C-0.08025391 8.90818359 -0.08025391 8.90818359 -0.0625 6.9375 C-0.05347656 5.64714844 -0.04445312 4.35679687 -0.03515625 3.02734375 C-0.02355469 2.02832031 -0.01195312 1.02929688 0 0 Z M45 18 C45 32.19 45 46.38 45 61 C55.0139101 61 60.72891818 60.43001052 68.375 54.625 C72.64794937 50.35205063 74.44496346 46.19211684 75 40.14453125 C75 33.71298907 73.36466063 27.8011267 69 23 C61.08111835 17.13071125 55.38462317 18 45 18 Z " fill="#ED1A3B" transform="translate(39,175)"/>
<path d="M0 0 C7.75964438 7.24864341 12.46042986 17.09763661 13.328125 27.66015625 C13.56574925 40.78889603 10.2092714 50.5191132 1.27734375 60.1875 C-9.66980497 70.61763759 -25.20401507 73.72375878 -39.90844727 73.53662109 C-53.83177792 73.04218225 -67.88715101 69.07066068 -78.375 59.5 C-86.92359075 50.08735814 -89.40079384 39.4623163 -89.1484375 27.11328125 C-88.37643518 16.02953362 -83.78614761 7.81445782 -75.84375 0.25390625 C-55.34874942 -17.01090402 -20.79019246 -16.3773945 0 0 Z M-53.66015625 15.3515625 C-58.40151761 22.23382225 -59.82445093 27.83887978 -58.875 36.1875 C-56.63431362 43.31147596 -53.30239024 47.4977019 -46.875 51.1875 C-41.0559392 53.12718693 -34.40827518 52.95226232 -28.5625 51.1875 C-22.52333178 46.69323528 -18.12073403 41.8003191 -16.875 34.1875 C-16.26821992 27.63427516 -17.39568054 21.41367619 -21.45703125 16.12890625 C-25.4336762 11.96165958 -28.85203522 9.54608617 -34.70703125 8.8515625 C-42.41430125 8.75054979 -48.52339317 9.12450178 -53.66015625 15.3515625 Z " fill="#ED1A3B" transform="translate(434.875,183.8125)"/>
<path d="M0 0 C1 1 1 1 1.1328125 3.1875 C1.13023437 4.115625 1.12765625 5.04375 1.125 6 C1.12886719 7.36125 1.12886719 7.36125 1.1328125 8.75 C0.96476934 12.86211491 0.49796289 16.91647746 0 21 C-0.55461914 20.98952637 -1.10923828 20.97905273 -1.68066406 20.96826172 C-4.20372959 20.92657996 -6.72672253 20.90063562 -9.25 20.875 C-10.12269531 20.85824219 -10.99539063 20.84148438 -11.89453125 20.82421875 C-13.16103516 20.81455078 -13.16103516 20.81455078 -14.453125 20.8046875 C-15.61569824 20.78897705 -15.61569824 20.78897705 -16.80175781 20.77294922 C-19.29513449 21.03048368 -20.87201388 21.69328081 -23 23 C-25.00246252 25.97139599 -25.34639427 28.72099403 -25.625 32.25 C-25.810625 34.60125 -25.810625 34.60125 -26 37 C-19.4 37 -12.8 37 -6 37 C-6 43.27 -6 49.54 -6 56 C-12.6 56 -19.2 56 -26 56 C-26 69.53 -26 83.06 -26 97 C-20.39 97.66 -14.78 98.32 -9 99 C-9 104.61 -9 110.22 -9 116 C-30.45 116 -51.9 116 -74 116 C-74 110.39 -74 104.78 -74 99 C-65.585 98.01 -65.585 98.01 -57 97 C-57 83.47 -57 69.94 -57 56 C-62.94 56 -68.88 56 -75 56 C-75 49.73 -75 43.46 -75 37 C-69.06 37 -63.12 37 -57 37 C-57.061875 35.5975 -57.12375 34.195 -57.1875 32.75 C-57.13471635 23.43368582 -55.53060115 15.36323879 -48.80859375 8.61328125 C-36.09753779 -2.72509048 -16.03836891 -2.3198355 0 0 Z " fill="#ED1A3B" transform="translate(317,39)"/>
<path d="M0 0 C1 1 1 1 1.1328125 2.93359375 C1.1138393 9.01450467 0.6975305 14.96131611 0 21 C-0.55461914 20.98952637 -1.10923828 20.97905273 -1.68066406 20.96826172 C-4.20372959 20.92657996 -6.72672253 20.90063562 -9.25 20.875 C-10.12269531 20.85824219 -10.99539062 20.84148438 -11.89453125 20.82421875 C-13.16103516 20.81455078 -13.16103516 20.81455078 -14.453125 20.8046875 C-15.61569824 20.78897705 -15.61569824 20.78897705 -16.80175781 20.77294922 C-19.29513449 21.03048368 -20.87201388 21.69328081 -23 23 C-25.00246252 25.97139599 -25.34639427 28.72099403 -25.625 32.25 C-25.810625 34.60125 -25.810625 34.60125 -26 37 C-19.4 37 -12.8 37 -6 37 C-6 43.27 -6 49.54 -6 56 C-12.6 56 -19.2 56 -26 56 C-26 69.53 -26 83.06 -26 97 C-20.39 97.66 -14.78 98.32 -9 99 C-9 104.61 -9 110.22 -9 116 C-30.45 116 -51.9 116 -74 116 C-74 110.39 -74 104.78 -74 99 C-65.585 98.01 -65.585 98.01 -57 97 C-57 83.47 -57 69.94 -57 56 C-62.94 56 -68.88 56 -75 56 C-75 49.73 -75 43.46 -75 37 C-69.06 37 -63.12 37 -57 37 C-57.061875 35.5975 -57.12375 34.195 -57.1875 32.75 C-57.13471635 23.43368582 -55.53060115 15.36323879 -48.80859375 8.61328125 C-36.09753779 -2.72509048 -16.03836891 -2.3198355 0 0 Z " fill="#ED1A3B" transform="translate(242,39)"/>
<path d="M0 0 C29.04 0 58.08 0 88 0 C88 7.26 88 14.52 88 22 C80.08 22 72.16 22 64 22 C63.67 20.35 63.34 18.7 63 17 C57.06 17 51.12 17 45 17 C45 21.62 45 26.24 45 31 C50.61 31 56.22 31 62 31 C62 30.01 62 29.02 62 28 C67.94 28 73.88 28 80 28 C80 35.26 80 42.52 80 50 C74.06 50 68.12 50 62 50 C61.67 49.01 61.34 48.02 61 47 C55.72 46.67 50.44 46.34 45 46 C45 51.61 45 57.22 45 63 C50.94 63 56.88 63 63 63 C63.33 60.69 63.66 58.38 64 56 C71.92 56 79.84 56 88 56 C88 63.59 88 71.18 88 79 C58.96 79 29.92 79 0 79 C0 74.38 0 69.76 0 65 C4 64 4 64 14 64 C14 48.16 14 32.32 14 16 C9.71 15.67 5.42 15.34 1 15 C0.67 14.67 0.34 14.34 0 14 C0 9.38 0 4.76 0 0 Z " fill="#ED1A3B" transform="translate(148,175)"/>
<path d="M0 0 C5.81715143 5.21189868 8.9763675 10.47208709 11 18 C11 24.93 11 31.86 11 39 C-8.14 39 -27.28 39 -47 39 C-43.76447126 47.61402286 -43.76447126 47.61402286 -37.09765625 51.34375 C-23.91557378 55.46775346 -10.1705586 52.3133572 2.90234375 49.33984375 C3.59457031 49.22769531 4.28679687 49.11554688 5 49 C6.4999411 50.4999411 6.31607651 51.94659605 6.53515625 54.03515625 C6.62216797 54.84404297 6.70917969 55.65292969 6.79882812 56.48632812 C6.88583984 57.33646484 6.97285156 58.18660156 7.0625 59.0625 C7.19881836 60.34350586 7.19881836 60.34350586 7.33789062 61.65039062 C7.56250722 63.76651535 7.78175227 65.88320894 8 68 C-3.70513945 72.29188447 -15.01623117 73.34520476 -27.4375 73.3125 C-28.65759766 73.32861328 -29.87769531 73.34472656 -31.13476562 73.36132812 C-44.47184296 73.36841854 -57.78022142 71.25544701 -68.09765625 62.1484375 C-77.09452395 52.55941927 -78.40841026 41.88209927 -78.2109375 29.234375 C-77.85171365 19.16723747 -73.83043638 10.07951966 -66.87890625 2.76953125 C-49.70977345 -12.25698399 -18.19665638 -14.35550172 0 0 Z M-44.25 15.4375 C-46.2621123 18.06574434 -46.2621123 18.06574434 -47 22 C-37.76 22 -28.52 22 -19 22 C-19.34808045 15.29318953 -19.34808045 15.29318953 -22.375 12.0625 C-29.53599178 6.80879417 -38.72264654 9.44953375 -44.25 15.4375 Z " fill="#ED1A3B" transform="translate(538,83)"/>
<path d="M0 0 C7.4335097 -0.07015797 14.86698418 -0.12313971 22.30075169 -0.15543652 C25.75425142 -0.17095378 29.20752121 -0.19192926 32.66088867 -0.22631836 C72.27947349 -0.61011109 72.27947349 -0.61011109 85 9 C90.87172139 15.13914633 92.44399873 20.36877776 92.33203125 28.796875 C91.58149504 36.03734201 88.34949496 41.25102016 82.8125 45.875 C71.03410027 54.14908245 58.0380101 55.40172366 44 55 C44 57.97 44 60.94 44 64 C45.01320313 63.98259766 45.01320313 63.98259766 46.046875 63.96484375 C46.93890625 63.95582031 47.8309375 63.94679687 48.75 63.9375 C49.63171875 63.92589844 50.5134375 63.91429687 51.421875 63.90234375 C54 64 54 64 58 65 C58 69.62 58 74.24 58 79 C38.86 79 19.72 79 0 79 C0 74.38 0 69.76 0 65 C5 64 5 64 14 64 C14 48.16 14 32.32 14 16 C9.71 15.67 5.42 15.34 1 15 C0 14 0 14 -0.09765625 10.83984375 C-0.08025391 8.90818359 -0.08025391 8.90818359 -0.0625 6.9375 C-0.05347656 5.64714844 -0.04445312 4.35679687 -0.03515625 3.02734375 C-0.02355469 2.02832031 -0.01195312 1.02929688 0 0 Z M44 18 C43.97111854 21.31248187 43.95324201 24.62493167 43.9375 27.9375 C43.92912109 28.88302734 43.92074219 29.82855469 43.91210938 30.80273438 C43.90888672 31.70185547 43.90566406 32.60097656 43.90234375 33.52734375 C43.89710693 34.35999756 43.89187012 35.19265137 43.88647461 36.05053711 C43.78356708 38.00516798 43.78356708 38.00516798 45 39 C51.28267538 39.0591589 56.14790756 38.24558089 61 34 C63.09390974 31.35985293 63 29.98824536 63 26.5625 C61.97158948 22.89878752 60.89480101 21.19251688 57.81640625 18.9375 C53.37432247 16.6448116 48.75235742 16.62709675 44 18 Z " fill="#ED1A3B" transform="translate(250,175)"/>
<path d="M0 0 C31.68 0 63.36 0 96 0 C96 8.91 96 17.82 96 27 C89.07 27 82.14 27 75 27 C74.505 22.545 74.505 22.545 74 18 C70.37 18 66.74 18 63 18 C63 33.18 63 48.36 63 64 C65.97 64 68.94 64 72 64 C73.65 64.33 75.3 64.66 77 65 C77 69.62 77 74.24 77 79 C57.86 79 38.72 79 19 79 C19 74.38 19 69.76 19 65 C23 64 23 64 33 64 C33 48.82 33 33.64 33 18 C29.37 18 25.74 18 22 18 C21.67 20.97 21.34 23.94 21 27 C14.07 27 7.14 27 0 27 C0 18.09 0 9.18 0 0 Z " fill="#ED1A3B" transform="translate(450,175)"/>
<path d="M0 0 C1.15822266 -0.00322266 2.31644531 -0.00644531 3.50976562 -0.00976562 C10.32597752 0.03281151 15.43524611 0.78422136 22.3125 2.3125 C22.3125 11.5525 22.3125 20.7925 22.3125 30.3125 C15.7125 30.3125 9.1125 30.3125 2.3125 30.3125 C1.6525 27.6725 0.9925 25.0325 0.3125 22.3125 C-5.16243578 20.80689266 -8.78263787 21.80230289 -13.6875 24.3125 C-18.17482989 27.46575884 -19.7166311 32.07617427 -20.6875 37.3125 C-20.87722036 42.58088859 -20.31214878 46.93827269 -18.125 51.75 C-12.47227995 57.69260313 -6.40776529 58.93789725 1.63671875 59.36328125 C8.26607156 59.27169614 14.76981253 58.32875826 21.3125 57.3125 C21.64969047 59.87454544 21.98237153 62.43704318 22.3125 65 C22.40789062 65.72123047 22.50328125 66.44246094 22.6015625 67.18554688 C23.07933735 70.92242871 23.43169794 74.53541531 23.3125 78.3125 C5.38213738 83.91573832 -18.13070292 83.97230256 -35.25 75.875 C-43.99994864 71.05680933 -49.0420926 65.29306155 -52.07226562 55.79858398 C-53.09276554 51.67487342 -53.17563309 47.66862972 -53.125 43.4375 C-53.11887695 42.56270996 -53.11275391 41.68791992 -53.10644531 40.78662109 C-52.81808562 28.83743896 -48.48752641 19.36604357 -39.85546875 11.046875 C-28.34318058 1.83704447 -14.28134703 -0.20069347 0 0 Z " fill="#ED1A3B" transform="translate(431.6875,74.6875)"/>
<path d="M0 0 C8.2603125 0.0309375 8.2603125 0.0309375 16.6875 0.0625 C16.6875 19.8625 16.6875 39.6625 16.6875 60.0625 C21.6375 60.7225 26.5875 61.3825 31.6875 62.0625 C31.6875 67.6725 31.6875 73.2825 31.6875 79.0625 C10.8975 79.0625 -9.8925 79.0625 -31.3125 79.0625 C-31.3125 73.4525 -31.3125 67.8425 -31.3125 62.0625 C-25.7025 61.4025 -20.0925 60.7425 -14.3125 60.0625 C-14.3125 46.5325 -14.3125 33.0025 -14.3125 19.0625 C-19.9225 18.7325 -25.5325 18.4025 -31.3125 18.0625 C-31.3125 12.4525 -31.3125 6.8425 -31.3125 1.0625 C-20.83486789 0.0919243 -10.51321098 -0.05600834 0 0 Z " fill="#ED1A3B" transform="translate(348.3125,75.9375)"/>
<path d="M0 0 C3.89748921 2.30160371 6.26939521 4.47352957 8.625 8.375 C9.58609023 12.39543853 9.52270413 15.7344773 7.515625 19.40234375 C3.63762581 24.33324057 -0.66025665 26.93012056 -6.984375 27.6875 C-14.25313696 28.00877125 -19.30967516 26.6371753 -24.9765625 22.08984375 C-27.74033273 19.31835349 -28.7721165 16.73184441 -29.0625 12.9375 C-28.79222797 8.4855191 -27.24857419 5.9394139 -24.1328125 2.81640625 C-17.37754076 -2.72291657 -7.92296546 -3.57956285 0 0 Z " fill="#ED1A3B" transform="translate(359.375,41.625)"/>
<path d="M0 0 C2.5625 1.5 2.5625 1.5 4 4 C4.77813307 7.99714672 4.60389013 10.9497563 2.5625 14.5 C-1.24426586 16.72835075 -4.69759209 16.78297497 -9 16 C-11.82039198 14.09623541 -12.70123492 12.75687152 -13.9375 9.625 C-14.0221688 6.06891031 -12.83947665 3.99766565 -11 1 C-7.53469791 -0.73265104 -3.78892965 -0.4643626 0 0 Z M-7 2 C-7 2.33 -7 2.66 -7 3 C-5.35 3 -3.7 3 -2 3 C-2 2.67 -2 2.34 -2 2 C-3.65 2 -5.3 2 -7 2 Z M-9 4 C-10.29042763 6.26601865 -10.29042763 6.26601865 -11 9 C-9.73647948 11.32511472 -9.73647948 11.32511472 -8 13 C-8 10.03 -8 7.06 -8 4 C-8.33 4 -8.66 4 -9 4 Z M-1 4 C-1 6.31 -1 8.62 -1 11 C-0.01 10.67 0.98 10.34 2 10 C1.65555119 7.52733235 1.65555119 7.52733235 1 5 C0.34 4.67 -0.32 4.34 -1 4 Z M-6 5 C-6 5.66 -6 6.32 -6 7 C-5.01 6.67 -4.02 6.34 -3 6 C-3.99 5.67 -4.98 5.34 -6 5 Z M-6 9 C-6.33 10.65 -6.66 12.3 -7 14 C-5.35 14 -3.7 14 -2 14 C-2.66 12.35 -3.32 10.7 -4 9 C-4.66 9 -5.32 9 -6 9 Z " fill="#ED1A3B" transform="translate(551,238)"/>
</svg>
