<?xml version="1.0" encoding="UTF-8"?>
<svg version="1.1" xmlns="http://www.w3.org/2000/svg" width="1167" height="257">
<path d="M0 0 C11.60223888 10.98069037 20.13262048 25.04104275 21.296875 41.2734375 C21.41204568 48.59637299 21.3207307 54.60307909 16.46484375 60.37890625 C6.77795976 69.7722483 -5.71067861 68.87171868 -18.35595703 68.8137207 C-20.21635135 68.81615184 -22.07674436 68.81987427 -23.93713379 68.82478333 C-28.96591447 68.83415057 -33.9944991 68.8248027 -39.02326441 68.8114512 C-44.29658679 68.80009512 -49.5699001 68.80424733 -54.8432312 68.80619812 C-63.69483627 68.80707963 -72.54636454 68.79602939 -81.39794922 68.77758789 C-91.62156441 68.75640942 -101.84506726 68.75291406 -112.06869996 68.75914985 C-121.919827 68.76485002 -131.77091462 68.75919097 -141.62203598 68.7479763 C-145.8076437 68.74334032 -149.99322724 68.74245211 -154.17883682 68.74456215 C-159.10862053 68.74644977 -164.03829035 68.73830474 -168.9680481 68.72250175 C-170.77398075 68.71827018 -172.57992499 68.71740075 -174.38586044 68.72019196 C-176.85682083 68.72343086 -179.32744457 68.71428933 -181.79837036 68.70210266 C-182.86210473 68.70777165 -182.86210473 68.70777165 -183.94732869 68.71355516 C-192.21368065 68.64177062 -199.43689999 66.69147743 -205.90625 61.44140625 C-212.00536596 53.62202682 -211.83181527 44.9493009 -210.90625 35.44140625 C-207.50552772 16.87858759 -194.59658694 1.49220565 -179.44433594 -9.04223633 C-127.47983666 -43.57551745 -47.36368727 -41.69786984 0 0 Z M-128.90625 -14.55859375 C-130.10266113 -14.26057861 -130.10266113 -14.26057861 -131.32324219 -13.95654297 C-154.9884665 -7.89261313 -178.36381852 3.30318767 -191.43359375 24.828125 C-194.94246476 31.05474225 -196.84467824 36.79106886 -197.28125 43.94140625 C-197.33023437 44.67359375 -197.37921875 45.40578125 -197.4296875 46.16015625 C-196.60572608 49.75115227 -194.73427933 51.1521201 -191.90625 53.44140625 C-189.07180949 53.93250442 -186.83946406 54.11525818 -184.01159668 54.06959534 C-183.22272678 54.07668972 -182.43385688 54.08378411 -181.62108183 54.09109348 C-178.98061458 54.10868029 -176.34161805 54.0905661 -173.70117188 54.07250977 C-171.80708648 54.07764834 -169.91300587 54.08492915 -168.01893616 54.0941925 C-162.87631878 54.11272256 -157.7342192 54.0997577 -152.59162331 54.08010221 C-147.21142591 54.06372772 -141.83126162 54.07252693 -136.4510498 54.07762146 C-127.41568726 54.08214375 -118.38053164 54.06626409 -109.34521484 54.03833008 C-98.89718562 54.00627764 -88.44952963 54.00629352 -78.0014739 54.02354485 C-67.95329194 54.03940522 -57.90524689 54.0326795 -47.85707092 54.01560783 C-43.57963927 54.00873286 -39.30231721 54.00977439 -35.02488708 54.01715279 C-29.9883589 54.02481043 -24.95225578 54.01270638 -19.91580009 53.98530388 C-18.06669311 53.97841351 -16.21754647 53.97832904 -14.36844063 53.98551941 C-11.84545283 53.99420016 -9.32378101 53.97828238 -6.80090332 53.95606995 C-6.06792511 53.96431071 -5.33494689 53.97255148 -4.57975721 53.98104197 C-1.0170549 53.92308918 0.98227418 53.51156715 4.02466583 51.59673977 C7.00778229 48.48927271 7.09375 46.75618477 7.09375 42.44140625 C5.85876269 34.66315285 3.45655955 27.98562057 -0.90625 21.44140625 C-1.39867187 20.70277344 -1.89109375 19.96414062 -2.3984375 19.203125 C-14.85807553 1.94443979 -36.41848233 -7.94359244 -56.46875 -13.30859375 C-57.2114917 -13.50735107 -57.9542334 -13.7061084 -58.71948242 -13.91088867 C-70.62957959 -16.92164354 -82.32756421 -17.93905751 -94.59375 -17.87109375 C-95.64798157 -17.86786102 -95.64798157 -17.86786102 -96.72351074 -17.86456299 C-107.68994347 -17.81071747 -118.24424558 -17.28158845 -128.90625 -14.55859375 Z " fill="#6DB23F" transform="translate(659.90625,32.55859375)"/>
<path d="M0 0 C0.78125852 -0.00297112 1.56251704 -0.00594224 2.36745006 -0.0090034 C4.98194152 -0.01766593 7.59638706 -0.01919658 10.21089172 -0.02069092 C12.08700661 -0.02532085 13.96312055 -0.03034575 15.8392334 -0.03573608 C20.93448723 -0.04884591 26.02972789 -0.05530238 31.12499595 -0.05974674 C34.31029992 -0.06268 37.49560031 -0.06678531 40.68090248 -0.07125092 C50.65269411 -0.08492265 60.62447754 -0.09459067 70.59627789 -0.09845281 C82.09645263 -0.10293168 93.5965084 -0.12047309 105.09664696 -0.1494534 C113.99279894 -0.17109127 122.88891751 -0.18115823 131.78509551 -0.18249393 C137.09506514 -0.18354052 142.40492288 -0.18941732 147.71486473 -0.20731354 C152.7127255 -0.2238304 157.71039073 -0.22593216 162.70826912 -0.21717453 C164.53755595 -0.21640607 166.36685345 -0.22072157 168.19611359 -0.23063278 C191.67627713 -0.35034016 191.67627713 -0.35034016 199.77070618 7.49591064 C204.57615731 13.11561878 204.6468716 18.6994683 204.46601868 25.85137939 C203.84209923 32.95057098 201.97009708 39.73279575 197.17695618 45.14044189 C183.28174908 56.05810462 164.54264349 55.29235971 147.75410461 55.28570557 C146.23004068 55.28870419 144.70597749 55.29210832 143.18191528 55.29588318 C139.07218233 55.30465578 134.96247025 55.30705843 130.85272884 55.30769897 C128.27675349 55.3084133 125.70078332 55.31055483 123.12480927 55.31319618 C114.11435616 55.32242727 105.10391777 55.32653387 96.09346008 55.32574463 C87.73256201 55.32514443 79.37172858 55.33569078 71.01084685 55.35148829 C63.80025615 55.3646204 56.58968642 55.36992616 49.37908387 55.36928922 C45.08684906 55.3690359 40.79467179 55.37179453 36.50244904 55.38246727 C32.46072058 55.39224435 28.41910353 55.39216261 24.37737083 55.38495064 C22.90655794 55.38391662 21.43573775 55.38619592 19.96493721 55.3923111 C-10.52374403 55.51071559 -10.52374403 55.51071559 -20.91679382 46.28106689 C-27.23648125 39.59877445 -28.19684018 32.6143731 -28.26054382 23.70294189 C-28.29341492 22.89534424 -28.32628601 22.08774658 -28.3601532 21.25567627 C-28.41503673 15.06381623 -26.89417563 10.85145386 -22.82304382 6.14044189 C-20.32304382 4.30059814 -20.32304382 4.30059814 -17.82304382 3.20294189 C-16.99804382 2.82266846 -16.17304382 2.44239502 -15.32304382 2.05059814 C-10.23683352 0.19889971 -5.3688288 -0.00641056 0 0 Z M-13.82304382 18.14044189 C-14.9943644 22.97984535 -14.35992644 28.45513428 -12.69804382 33.14044189 C-10.07737711 37.33350863 -7.26843594 38.53268557 -2.5636301 39.70197678 C0.70993891 40.22571355 3.83504287 40.27288597 7.15133667 40.28088379 C8.18635052 40.28534047 8.18635052 40.28534047 9.24227375 40.28988719 C11.54806896 40.29853958 13.85381205 40.30007952 16.15962219 40.30157471 C17.81574615 40.30620546 19.47186906 40.31123047 21.12799072 40.31661987 C25.62422435 40.32972414 30.12044305 40.33618539 34.61669278 40.34063053 C37.42947098 40.34356544 40.24224513 40.34767112 43.05502129 40.3521347 C51.86604021 40.36580665 60.67704986 40.37547385 69.48807865 40.3793366 C79.63892819 40.38381176 89.7896427 40.40133577 99.9404512 40.43033719 C107.79885142 40.45200477 115.65721379 40.46204364 123.51564354 40.46337771 C128.20305353 40.46442244 132.89033654 40.47025868 137.57771492 40.48819733 C141.99283881 40.50476519 146.40774147 40.50679155 150.82288551 40.49805832 C152.4352503 40.49729249 154.04762741 40.50157009 155.6599617 40.51151657 C166.6450683 40.57525895 177.75457018 40.52745634 187.17695618 34.14044189 C189.56066486 30.06761514 190.18976468 25.93456895 190.11445618 21.26544189 C189.01591444 17.6036361 188.47674681 16.94469747 185.17695618 15.14044189 C182.49424029 14.85173334 180.04581535 14.73523628 177.36459351 14.75949097 C176.17644496 14.75247101 176.17644496 14.75247101 174.96429342 14.74530923 C172.30722803 14.73333291 169.65067589 14.74282669 166.99360657 14.7522583 C165.08982034 14.74819374 163.18603647 14.74285251 161.28225708 14.73632812 C156.10871083 14.72263412 150.93534377 14.72796204 145.76179433 14.73746538 C140.35089584 14.74505227 134.94001285 14.73801897 129.52911377 14.73330688 C120.44075258 14.72784604 111.35246448 14.7350491 102.26411438 14.74932861 C91.75424592 14.76565083 81.24455208 14.76037102 70.73468786 14.7438494 C61.71548023 14.73023807 52.6963252 14.7283133 43.67711061 14.7361654 C38.28849611 14.74084448 32.89996369 14.74146039 27.51135445 14.73155594 C22.44455348 14.7228939 17.37797772 14.72889434 12.3112011 14.74623871 C10.45079803 14.75020783 8.59037602 14.74906225 6.72998047 14.74245071 C4.19183135 14.7342618 1.65440544 14.74452453 -0.88369751 14.75949097 C-1.62124879 14.7527988 -2.35880008 14.74610664 -3.1187014 14.73921168 C-7.50035376 14.78938052 -10.36791282 15.38177027 -13.82304382 18.14044189 Z " fill="#6DB23F" transform="translate(476.8230438232422,201.85955810546875)"/>
<path d="M0 0 C1.21816341 -0.00573832 1.21816341 -0.00573832 2.46093619 -0.01159257 C5.17378179 -0.02188585 7.88641428 -0.01793741 10.59927368 -0.01396179 C12.54774674 -0.01831031 14.49621808 -0.02349393 16.44468689 -0.02944946 C21.73190949 -0.042836 27.01906058 -0.04341848 32.30629683 -0.04088616 C36.72227797 -0.03981616 41.13824466 -0.0447006 45.5542227 -0.04949158 C55.97371033 -0.0605857 66.39316191 -0.06102478 76.81265259 -0.05497742 C87.55652591 -0.04893759 98.30026826 -0.06124913 109.04411924 -0.08254749 C118.27317208 -0.10016926 127.50218327 -0.10616391 136.73125231 -0.10290974 C142.24122403 -0.10109758 147.75110234 -0.10372644 153.26105881 -0.11762428 C158.44361087 -0.13020721 163.62595896 -0.12825401 168.80850792 -0.11521339 C170.707971 -0.11284904 172.60744847 -0.11557722 174.50689507 -0.12383652 C177.10517411 -0.13431774 179.70277049 -0.12619241 182.30102539 -0.11352539 C183.04792865 -0.12089968 183.79483191 -0.12827396 184.56436861 -0.13587171 C191.07689122 -0.0693404 196.55269091 1.33253171 201.58999634 5.69819641 C206.50420496 11.4548408 208.17587723 15.28055026 208.05093384 22.88960266 C207.30146206 29.38859363 203.71166354 33.8140829 198.94937134 38.03413391 C193.27785762 41.23711108 186.89205671 41.55463397 180.51776123 41.52139282 C179.32977788 41.52713114 179.32977788 41.52713114 178.11779487 41.53298539 C175.48492446 41.54323893 172.85227526 41.53933789 170.21939087 41.53535461 C168.32312825 41.53970533 166.42686739 41.54488968 164.53060913 41.55084229 C159.3941917 41.56420495 154.25784798 41.56481398 149.12141657 41.56227899 C144.82730453 41.5612074 140.53320729 41.56609746 136.23909843 41.57088441 C126.10523928 41.58197019 115.97141721 41.58242225 105.83755493 41.57637024 C95.39701007 41.57033077 84.95659998 41.58264294 74.51607811 41.60394031 C65.53918066 41.62157606 56.56232604 41.62755454 47.58541191 41.62430257 C42.22966525 41.62249269 36.87401475 41.62509642 31.51828384 41.63901711 C26.48015372 41.6516229 21.44223317 41.64962529 16.40410614 41.63660622 C14.56030836 41.63424687 12.71649571 41.63695202 10.872715 41.64522934 C-9.52268082 41.73015379 -9.52268082 41.73015379 -18.09750366 36.51069641 C-22.96805081 31.35364649 -24.48735355 27.82330844 -24.72250366 20.76069641 C-24.49765209 14.22501074 -23.40861767 10.59895631 -18.83187866 5.80366516 C-13.1943489 0.65571035 -7.35276975 -0.03698403 0 0 Z M-10.22250366 18.26069641 C-10.13365366 21.29414595 -10.13365366 21.29414595 -9.22250366 24.26069641 C-5.52745497 26.7240622 -2.72267649 26.54859562 1.55226135 26.53485107 C2.35237863 26.54008775 3.1524959 26.54532443 3.97685915 26.5507198 C6.66688401 26.56576174 9.35671936 26.56642586 12.04678345 26.5670929 C13.97174909 26.57471148 15.89671169 26.58313846 17.82167053 26.59231567 C23.05713751 26.61429525 28.29254609 26.62306404 33.528054 26.62814212 C36.79672553 26.63178113 40.06538165 26.63801875 43.33404732 26.64514351 C54.73081258 26.66964849 66.12753225 26.6826925 77.52432251 26.68623352 C88.15865598 26.68987124 98.79270125 26.71978092 109.42694658 26.7616381 C118.54887256 26.79628795 127.67070277 26.81178103 136.79269415 26.81247956 C142.24454021 26.81327408 147.69609277 26.8220934 153.14787102 26.85047722 C158.27383593 26.8765675 163.39926209 26.87891377 168.52526283 26.86282158 C170.40867661 26.86099996 172.29212072 26.86776175 174.17546844 26.88364029 C176.74287314 26.90396998 179.30836944 26.89362792 181.87574768 26.87542725 C182.62467582 26.88862721 183.37360396 26.90182718 184.1452269 26.91542715 C188.0594844 26.85185074 189.47512505 26.56847061 192.27135563 23.72227573 C192.76838206 22.90995456 193.2654085 22.09763338 193.77749634 21.26069641 C193.13827669 18.78442542 193.13827669 18.78442542 191.77749634 16.26069641 C187.63964337 13.993691 183.59989269 13.97825751 178.99673462 14.00672913 C178.22011538 14.00360914 177.44349613 14.00048916 176.64334297 13.99727464 C174.04475406 13.98930647 171.44639943 13.99561365 168.84780884 14.00190735 C166.98328515 13.99919696 165.11876253 13.99563576 163.25424194 13.99128723 C158.19235358 13.98216664 153.13054671 13.98570615 148.06865692 13.9920454 C142.77254516 13.99710708 137.4764404 13.99241348 132.18032837 13.98927307 C123.28627265 13.98563392 114.39225014 13.9904312 105.49819946 13.99995422 C95.21385347 14.01083867 84.92958677 14.00731305 74.64524269 13.99630141 C65.81710443 13.9872271 56.98899004 13.98594397 48.16084862 13.99117875 C42.88740107 13.99429765 37.61399081 13.99470997 32.34054565 13.98810577 C27.38294002 13.98233086 22.42543668 13.98633193 17.4678421 13.99789429 C15.64775004 14.00054008 13.82764938 13.99977715 12.00756073 13.99536896 C9.52434338 13.98990894 7.04145445 13.99675316 4.55825806 14.00672913 C3.4763 14.00003696 3.4763 14.00003696 2.37248421 13.9932096 C-2.76287066 14.03326155 -6.52334436 14.56153711 -10.22250366 18.26069641 Z " fill="#6DB23F" transform="translate(473.2225036621094,149.7393035888672)"/>
<path d="M0 0 C2.90820644 2.02070206 4.99679436 4.29613127 7.109375 7.12109375 C8.22084277 8.72742886 8.22084277 8.72742886 10.265625 9.57421875 C14.23565258 9.94874965 16.4896035 10.07308972 19.890625 7.88671875 C21.53714532 6.28352792 23.16080902 4.65665513 24.765625 3.01171875 C29.69979964 -1.79910153 34.22654808 -3.54605367 41.015625 -3.67578125 C47.36579732 -3.59161107 52.13648324 -2.3521476 56.890625 1.94921875 C58.06625 3.24859375 58.06625 3.24859375 59.265625 4.57421875 C62.09676614 7.420873 64.27768036 9.4359065 68.390625 10.01171875 C71.88039081 9.48066743 74.28737299 8.72210983 76.6171875 5.98828125 C77.03742188 5.39789063 77.45765625 4.8075 77.890625 4.19921875 C82.10236085 -0.86967942 87.38831443 -2.84982547 93.81640625 -3.8046875 C99.94083567 -4.09995548 105.15265536 -2.86283306 110.265625 0.57421875 C112.29963165 2.57329017 114.09547488 4.62454756 115.85546875 6.8671875 C117.17290949 8.69650563 117.17290949 8.69650563 119.265625 9.57421875 C123.23565258 9.94874965 125.4896035 10.07308972 128.890625 7.88671875 C130.48468674 6.334606 132.02725938 4.72795833 133.515625 3.07421875 C139.17416703 -2.06991036 145.22557143 -4.09305463 152.84375 -3.75 C158.9649005 -2.93055566 163.75774535 -0.68322315 168.265625 3.57421875 C168.8225 4.41984375 169.379375 5.26546875 169.953125 6.13671875 C172.98024282 9.32746456 175.8230856 9.88262539 180.0234375 10.8984375 C182.265625 11.57421875 182.265625 11.57421875 184.265625 13.57421875 C184.83524525 20.75143394 184.83524525 20.75143394 183.0703125 23.30078125 C179.34473947 25.9296488 174.60314463 25.09709783 170.265625 24.57421875 C165.38866845 23.17604691 162.33337166 20.89497703 159.203125 16.94921875 C157.02609848 14.21171115 156.11443582 13.50402377 152.765625 11.94921875 C148.43132986 11.48482998 146.82768487 12.09626406 143.265625 14.57421875 C142.05397165 16.07284263 140.84268415 17.57179463 139.640625 19.078125 C135.96443836 23.07806672 132.03514766 24.38448875 126.6953125 24.95703125 C119.55494222 25.16996476 112.95497579 25.32188389 107.265625 20.57421875 C105.39354087 18.54448544 103.65744577 16.49280781 102.00390625 14.28125 C99.75723681 12.07497012 98.39357947 11.73835429 95.265625 11.57421875 C91.24033248 12.6570102 89.14050128 14.4480599 86.390625 17.51171875 C80.41108173 23.60178962 76.25500211 24.74048104 67.828125 25.07421875 C61.34344646 24.93338664 56.98441791 24.12743998 52.265625 19.57421875 C51.38961891 18.52965172 50.53419748 17.46737849 49.703125 16.38671875 C46.6880239 12.90775594 44.80976101 12.13227054 40.265625 11.57421875 C35.62281341 13.05991846 33.61881495 15.34608072 30.640625 19.078125 C26.96443836 23.07806672 23.03514766 24.38448875 17.6953125 24.95703125 C10.55494222 25.16996476 3.95497579 25.32188389 -1.734375 20.57421875 C-3.60645913 18.54448544 -5.34255423 16.49280781 -6.99609375 14.28125 C-9.24276319 12.07497012 -10.60642053 11.73835429 -13.734375 11.57421875 C-17.75966752 12.6570102 -19.85949872 14.4480599 -22.609375 17.51171875 C-28.59966847 23.65818375 -33.90082104 24.89474485 -42.28125 25.0703125 C-44.734375 24.57421875 -44.734375 24.57421875 -46.53515625 22.734375 C-48.1777331 19.77559651 -48.22062483 17.90850327 -47.734375 14.57421875 C-45.54052982 11.28345098 -43.52406377 10.40470283 -39.796875 9.63671875 C-35.51706662 8.74112922 -33.64212271 6.87490533 -30.734375 3.57421875 C-21.71099168 -4.7175389 -10.68587634 -5.86379063 0 0 Z " fill="#6DB23F" transform="translate(495.734375,113.42578125)"/>
<path d="M0 0 C3.96 0 7.92 0 12 0 C12 18.48 12 36.96 12 56 C28.5 56 45 56 62 56 C62 37.52 62 19.04 62 0 C65.96 0 69.92 0 74 0 C74 32.67 74 65.34 74 99 C70.04 99 66.08 99 62 99 C62 88.44 62 77.88 62 67 C45.5 67 29 67 12 67 C12 77.56 12 88.12 12 99 C8.04 99 4.08 99 0 99 C0 66.33 0 33.66 0 0 Z " fill="#1D1D1D" transform="translate(82,106)"/>
<path d="M0 0 C3.96 0 7.92 0 12 0 C12 18.48 12 36.96 12 56 C28.17 56 44.34 56 61 56 C61 37.52 61 19.04 61 0 C64.96 0 68.92 0 73 0 C73 32.67 73 65.34 73 99 C69.04 99 65.08 99 61 99 C61 88.44 61 77.88 61 67 C44.83 67 28.66 67 12 67 C12 77.56 12 88.12 12 99 C8.04 99 4.08 99 0 99 C0 66.33 0 33.66 0 0 Z " fill="#1D1D1D" transform="translate(789,106)"/>
<path d="M0 0 C3.96 0 7.92 0 12 0 C12.33 16.83 12.66 33.66 13 51 C20.24334751 41.94581562 27.46994347 32.88760194 34.61914062 23.76025391 C36.05054263 21.93557065 37.48571871 20.11391193 38.921875 18.29296875 C39.40172852 17.68283936 39.88158203 17.07270996 40.37597656 16.4440918 C41.32311814 15.2447118 42.27549172 14.04944242 43.23339844 12.85864258 C45.17723024 10.42606197 46.97443555 8.04434649 48.53125 5.34375 C49.89030289 2.99026817 50.75316842 1.54148528 53 0 C57.73965678 -0.65043659 62.24956019 -0.46853653 67 0 C65.35728782 3.71164158 63.05107313 6.68166296 60.5625 9.875 C60.12220459 10.44162354 59.68190918 11.00824707 59.22827148 11.59204102 C57.82289284 13.39789433 56.41213716 15.19942814 55 17 C54.54882812 17.57637207 54.09765625 18.15274414 53.6328125 18.74658203 C52.27721404 20.47781056 50.91998681 22.20775192 49.5625 23.9375 C49.11358398 24.51081055 48.66466797 25.08412109 48.20214844 25.67480469 C45.78230288 28.7585169 43.33853739 31.81918263 40.859375 34.85546875 C40.34947021 35.48654541 39.83956543 36.11762207 39.31420898 36.76782227 C38.33468737 37.97920594 37.34753253 39.18446863 36.35180664 40.38256836 C33.74263424 43.62670153 33 44.68093865 33 49 C34.10929482 50.88296502 34.10929482 50.88296502 35.7109375 52.65234375 C36.29109619 53.33949463 36.87125488 54.02664551 37.46899414 54.73461914 C38.09797607 55.46156982 38.72695801 56.18852051 39.375 56.9375 C40.67485418 58.47514633 41.97302136 60.01422029 43.26953125 61.5546875 C44.22980225 62.69115723 44.22980225 62.69115723 45.20947266 63.85058594 C48.40577044 67.6875379 51.39094774 71.67605102 54.40625 75.65625 C56.37270029 78.22390803 58.40714162 80.72689292 60.46875 83.21875 C61.06421631 83.9398999 61.65968262 84.6610498 62.27319336 85.40405273 C63.44260126 86.81471384 64.61767515 88.22070217 65.79907227 89.62133789 C66.33072998 90.26321045 66.8623877 90.90508301 67.41015625 91.56640625 C67.88590088 92.13302979 68.36164551 92.69965332 68.85180664 93.28344727 C70.11667996 95.17443691 70.57917182 96.77796646 71 99 C66.14626869 99.75533571 61.83646217 99.96021715 57 99 C53.31870765 96.10273465 50.82324709 92.62255706 48.22851562 88.77929688 C46.15602677 85.77764767 43.84172288 82.970619 41.5625 80.125 C40.64652741 78.95722487 39.73247989 77.78793734 38.8203125 76.6171875 C38.36172852 76.02905273 37.90314453 75.44091797 37.43066406 74.83496094 C36.95854492 74.22942383 36.48642578 73.62388672 36 73 C33.98135652 70.41494662 31.95995531 67.83207161 29.9375 65.25 C29.472229 64.6533252 29.00695801 64.05665039 28.52758789 63.44189453 C26.76323156 61.18895227 25.02560096 59.02560096 23 57 C22.36191406 57.78246094 21.72382812 58.56492188 21.06640625 59.37109375 C20.24011719 60.38300781 19.41382813 61.39492187 18.5625 62.4375 C17.32693359 63.95150391 17.32693359 63.95150391 16.06640625 65.49609375 C14 68 14 68 13 69 C12.84126045 71.21687994 12.74866163 73.43855298 12.68359375 75.66015625 C12.66281265 76.32462265 12.64203156 76.98908905 12.62062073 77.6736908 C12.55506342 79.80318543 12.49621215 81.93280668 12.4375 84.0625 C12.39432061 85.50326847 12.35070651 86.94402399 12.30664062 88.38476562 C12.19937607 91.9230404 12.09812629 95.46145869 12 99 C8.04 99 4.08 99 0 99 C0 66.33 0 33.66 0 0 Z " fill="#1D1D1D" transform="translate(1068,106)"/>
<path d="M0 0 C3.96 0 7.92 0 12 0 C12.33 16.83 12.66 33.66 13 51 C16.63 46.38 20.26 41.76 24 37 C25.815 34.69 27.63 32.38 29.5 30 C30.85351562 28.27716797 30.85351562 28.27716797 32.234375 26.51953125 C34.11918743 24.12061813 36.00469019 21.72224958 37.890625 19.32421875 C38.3647583 18.71980957 38.8388916 18.11540039 39.32739258 17.49267578 C40.26696467 16.30043345 41.21203003 15.11249736 42.1628418 13.92919922 C44.19962136 11.38185817 46.05292008 8.91313564 47.75390625 6.12109375 C49.36579678 3.539645 50.52483831 1.78046017 53 0 C57.76012206 -0.7303057 62.22695252 -0.53622309 67 0 C65.30781244 3.91975649 62.71200866 7.07228838 60.0625 10.375 C59.06370814 11.6327379 58.06501289 12.89055253 57.06640625 14.1484375 C56.55609863 14.7887793 56.04579102 15.42912109 55.52001953 16.08886719 C53.16616488 19.04838762 50.83357414 22.02448236 48.5 25 C47.59777167 26.14852818 46.69542711 27.29696506 45.79296875 28.4453125 C45.34099121 29.02055664 44.88901367 29.59580078 44.42333984 30.18847656 C40.28222656 35.45898438 36.14111328 40.72949219 32 46 C33.69217313 49.91972307 36.28789543 53.07239492 38.9375 56.375 C39.9389424 57.63530519 40.94024059 58.89572497 41.94140625 60.15625 C42.45203613 60.79691406 42.96266602 61.43757813 43.48876953 62.09765625 C44.90592916 63.8815832 46.31293375 65.67282571 47.71484375 67.46875 C51.59825302 72.44165153 55.48965776 77.39958628 59.51171875 82.26171875 C60.39754639 83.33607178 60.39754639 83.33607178 61.30126953 84.43212891 C62.4490701 85.82049981 63.60215069 87.20452765 64.76123047 88.58349609 C67.51645962 91.91877348 69.70070073 94.79543529 71 99 C66.11619796 99.83416765 61.86617912 100.03418796 57 99 C53.00220961 95.79028579 50.24265407 92.06398325 47.32666016 87.87744141 C45.60221953 85.43707549 43.74697343 83.11725901 41.87890625 80.78613281 C40.50210593 79.06513241 39.14491102 77.33042072 37.79296875 75.58984375 C34.81388815 71.75686625 31.81386694 67.94053645 28.8125 64.125 C27.88143483 62.94016356 26.95043794 61.75527346 26.01953125 60.5703125 C25.35308594 59.72210938 24.68664062 58.87390625 24 58 C18.60293806 59.79902065 15.67495514 64.12840289 13 69 C11.93186115 74.22966405 11.92052435 79.32031585 12 84.625 C11.99189012 86.02476514 11.9801964 87.42451431 11.96484375 88.82421875 C11.94144064 92.21766995 11.95403513 95.60689881 12 99 C8.04 99 4.08 99 0 99 C0 66.33 0 33.66 0 0 Z " fill="#1D1D1D" transform="translate(268,106)"/>
<path d="M0 0 C20.13 0 40.26 0 61 0 C61 3.63 61 7.26 61 11 C44.83 11 28.66 11 12 11 C12 25.85 12 40.7 12 56 C26.52 56 41.04 56 56 56 C56 59.63 56 63.26 56 67 C41.48 67 26.96 67 12 67 C12 73.93 12 80.86 12 88 C28.83 88 45.66 88 63 88 C63 91.63 63 95.26 63 99 C42.21 99 21.42 99 0 99 C0 66.33 0 33.66 0 0 Z " fill="#1D1D1D" transform="translate(351,106)"/>
<path d="M0 0 C1.32 0 2.64 0 4 0 C12.51601148 20.3662266 20.97389395 40.75495736 29.33203125 61.18652344 C32.27409275 68.37546389 35.22241358 75.56103217 38.23046875 82.72265625 C38.70508545 83.85348633 39.17970215 84.98431641 39.66870117 86.14941406 C40.52886638 88.19311487 41.39209736 90.23552927 42.2590332 92.27636719 C42.62730225 93.15067383 42.99557129 94.02498047 43.375 94.92578125 C43.69210938 95.67255127 44.00921875 96.41932129 44.3359375 97.1887207 C45 99 45 99 45 101 C40.71 101 36.42 101 32 101 C30.99580363 98.5433053 29.99649499 96.08481647 29 93.625 C28.71382813 92.92632812 28.42765625 92.22765625 28.1328125 91.5078125 C26 86.2265625 26 86.2265625 26 84 C10.16 84 -5.68 84 -22 84 C-22.99 86.97 -23.98 89.94 -25 93 C-25.96788417 95.68060101 -26.98331484 98.33725314 -28 101 C-32.29 101 -36.58 101 -41 101 C-36.83864851 89.69024998 -32.41283815 78.5126834 -27.8125 67.375 C-27.13001537 65.71744598 -26.44772888 64.05981035 -25.765625 62.40209961 C-23.91615561 57.90970139 -22.06317568 53.41875999 -20.20904541 48.92828369 C-18.94021205 45.8551948 -17.67196218 42.78186556 -16.40380859 39.70849609 C-10.9409364 26.47023642 -5.47264389 13.23422288 0 0 Z M2 26 C-0.82959674 31.51326558 -3.35316275 37.05985574 -5.671875 42.8046875 C-5.99915588 43.60987823 -6.32643677 44.41506897 -6.66363525 45.24465942 C-7.34750957 46.9297092 -8.02976331 48.61541754 -8.71044922 50.30175781 C-9.75636025 52.89074379 -10.8095025 55.47670787 -11.86328125 58.0625 C-12.52907874 59.70555381 -13.19445858 61.34877694 -13.859375 62.9921875 C-14.17493347 63.76609833 -14.49049194 64.54000916 -14.81561279 65.33737183 C-16.42690702 69.05018679 -16.42690702 69.05018679 -17 73 C-4.46 73 8.08 73 21 73 C18.76234857 66.18529542 18.76234857 66.18529542 16.2824707 59.48999023 C15.83234367 58.34982704 15.83234367 58.34982704 15.37312317 57.18663025 C15.06050034 56.4018782 14.7478775 55.61712616 14.42578125 54.80859375 C14.09708542 53.97787857 13.76838959 53.14716339 13.42973328 52.29127502 C12.39292355 49.67244452 11.35277408 47.05495602 10.3125 44.4375 C9.6032931 42.64787463 8.8943067 40.85816186 8.18554688 39.06835938 C6.45957593 34.71122616 4.73061122 30.35529211 3 26 C2.67 26 2.34 26 2 26 Z " fill="#1D1D1D" transform="translate(210,104)"/>
<path d="M0 0 C1.8659668 0.00463867 1.8659668 0.00463867 4 1 C5.26236764 3.32875391 6.21747247 5.46440426 7.14453125 7.92578125 C7.43102539 8.6477771 7.71751953 9.36977295 8.01269531 10.11364746 C8.63354602 11.68325596 9.24732359 13.2556762 9.85488892 14.83047485 C11.15343949 18.19617857 12.48512405 21.54845007 13.81462097 24.90202332 C14.50588847 26.6470881 15.19532564 28.39287895 15.88301086 30.13935852 C19.10674382 38.31886327 22.46524224 46.43889275 25.86334229 54.54724121 C26.80800286 56.80176713 27.74985126 59.05744843 28.69091797 61.31347656 C31.49970678 68.04375846 34.32199646 74.76807671 37.1640625 81.484375 C37.63739014 82.60739014 38.11071777 83.73040527 38.59838867 84.88745117 C39.4636796 86.93906623 40.33333343 88.9888491 41.20825195 91.03637695 C41.76838989 92.36608521 41.76838989 92.36608521 42.33984375 93.72265625 C42.82505493 94.86359741 42.82505493 94.86359741 43.32006836 96.02758789 C44 98 44 98 44 101 C40.04 101 36.08 101 32 101 C29.23351625 95.65782449 27.1453176 90.72084693 25 85 C9.16 84.67 -6.68 84.34 -23 84 C-23.33 85.65 -23.66 87.3 -24 89 C-24.81164833 91.12093023 -25.66793728 93.22518699 -26.5625 95.3125 C-27.01753906 96.38113281 -27.47257813 97.44976562 -27.94140625 98.55078125 C-28.29074219 99.35902344 -28.64007812 100.16726562 -29 101 C-32.96 101 -36.92 101 -41 101 C-40.14199962 96.70999809 -38.93786537 93.03741372 -37.2890625 89.03515625 C-37.00903381 88.34561859 -36.72900513 87.65608093 -36.44049072 86.94564819 C-35.50643577 84.64942711 -34.56583219 82.35595171 -33.625 80.0625 C-32.96343611 78.44094603 -32.30214664 76.81928008 -31.64111328 75.19750977 C-23.80844833 56.00605728 -15.88872771 36.84969384 -7.94824219 17.70263672 C-6.75102475 14.81572891 -5.55816659 11.92713831 -4.37207031 9.03564453 C-3.92186523 7.9423584 -3.47166016 6.84907227 -3.0078125 5.72265625 C-2.63543457 4.81394775 -2.26305664 3.90523926 -1.87939453 2.96899414 C-1 1 -1 1 0 0 Z M1 25 C-1.06561049 30.06688878 -3.12848301 35.13488088 -5.18896484 40.20385742 C-5.88843186 41.92355487 -6.58861069 43.64296299 -7.28955078 45.36206055 C-8.3043428 47.85126865 -9.31646105 50.34155045 -10.328125 52.83203125 C-10.63558655 53.58458694 -10.9430481 54.33714264 -11.25982666 55.11250305 C-13.66045944 61.03337893 -15.81209452 66.98325994 -18 73 C-5.46 73 7.08 73 20 73 C19.28967696 69.44838481 18.63012815 66.76009958 17.32592773 63.48510742 C16.98565048 62.62459274 16.64537323 61.76407806 16.29478455 60.87748718 C15.92809158 59.9627211 15.56139862 59.04795502 15.18359375 58.10546875 C14.80767593 57.15811356 14.43175812 56.21075836 14.04444885 55.23469543 C12.84609712 52.21736945 11.64188345 49.20242277 10.4375 46.1875 C9.62265894 44.13882613 8.80820133 42.0899997 7.99414062 40.04101562 C6.00053528 35.02556681 4.00211548 30.01205728 2 25 C1.67 25 1.34 25 1 25 Z " fill="#1D1D1D" transform="translate(917,104)"/>
<path d="M0 0 C3.64680144 2.77433087 6.49201563 6.10291629 9.26953125 9.7265625 C7.31625035 14.42232869 4.66940524 15.44514636 0.26953125 17.7265625 C-0.0965625 17.29085937 -0.46265625 16.85515625 -0.83984375 16.40625 C-7.28193596 9.31994856 -16.14994795 4.23791507 -25.796875 3.48828125 C-37.48338307 3.24018778 -47.08784515 5.52081877 -55.73046875 13.7265625 C-63.71936169 22.32713401 -67.14858033 33.0194746 -67.0078125 44.625 C-65.98983155 56.0091813 -61.30387311 66.05777539 -52.66796875 73.5390625 C-44.35193823 79.54896691 -33.87820501 82.10205096 -23.73046875 80.7265625 C-13.91154933 78.65329126 -6.76351351 75.14417128 0.01953125 67.7890625 C2.26953125 65.7265625 2.26953125 65.7265625 4.20703125 65.6640625 C7.05695734 67.13220624 9.65117064 68.88180843 12.26953125 70.7265625 C10.22114014 78.23732992 3.89447457 82.55507085 -2.41796875 86.4765625 C-14.9070724 93.3548436 -29.78960495 94.97916684 -43.66796875 91.5390625 C-57.05444669 87.15104783 -67.98749749 79.34585354 -74.73046875 66.7265625 C-81.11385461 52.99509903 -82.20818045 36.9429459 -76.984375 22.58203125 C-70.6263081 8.10306893 -61.1670851 -0.33765333 -46.73046875 -6.2734375 C-31.09129321 -11.76828296 -13.7678692 -8.67442486 0 0 Z " fill="#1D1D1D" transform="translate(1041.73046875,113.2734375)"/>
<path d="M0 0 C5.32496148 3.88646477 8.51740747 6.79351867 11 13 C8.03 14.98 5.06 16.96 2 19 C1.13375 17.906875 0.2675 16.81375 -0.625 15.6875 C-4.27353556 11.51533202 -7.15655104 9.31332771 -12.8359375 8.6875 C-19.52152703 8.38448078 -19.52152703 8.38448078 -25.625 10.75 C-29.33351163 14.26332681 -29.90326468 15.78113493 -30.3125 20.9375 C-30.41009821 24.71380007 -29.18448684 26.94567225 -27 30 C-25.23263322 31.52137918 -25.23263322 31.52137918 -23.0625 32.6875 C-22.18722656 33.19023437 -21.31195312 33.69296875 -20.41015625 34.2109375 C-17.70773921 35.62870039 -14.99851273 36.97407182 -12.24609375 38.2890625 C10.68178886 49.27034564 10.68178886 49.27034564 15.625 59.8125 C18.07238538 67.27064597 18.34955792 75.86494045 15.09765625 83.125 C10.92029626 90.2607039 5.90383565 94.52830581 -2 97 C-12.64072678 99.63790212 -24.14717273 98.79900638 -34 94 C-40.14361049 90.25505225 -45.4817679 85.34661477 -49 79 C-49 78.01 -49 77.02 -49 76 C-45.7 74.35 -42.4 72.7 -39 71 C-37.453125 73.10375 -37.453125 73.10375 -35.875 75.25 C-31.14855969 81.29566763 -26.60214337 84.45380135 -19 86 C-12.64561828 86.66458671 -6.74049267 85.92201431 -1 83 C2.46534622 79.44802012 4.15142041 76.73814444 4.3125 71.8125 C4.21435381 67.1014829 3.23874957 63.51292943 0 60 C-4.45914079 56.47552628 -9.64799298 54.15779725 -14.75 51.71875 C-37.76537015 40.66920618 -37.76537015 40.66920618 -42.125 31.1875 C-44.41461306 22.84202631 -43.90399939 14.74196209 -39.62109375 7.1953125 C-31.02306374 -4.44828477 -12.40940982 -7.08438897 0 0 Z " fill="#1D1D1D" transform="translate(755,108)"/>
<path d="M0 0 C6.80795832 3.25498344 11.5624503 7.27193604 14.4375 14.375 C11.4675 16.355 8.4975 18.335 5.4375 20.375 C3.41464121 18.35214121 1.39834988 16.333403 -0.5625 14.25 C-4.49083178 10.56718895 -7.65567854 10.08103522 -13 10.0625 C-14.11246094 10.04574219 -15.22492187 10.02898437 -16.37109375 10.01171875 C-19.91276798 10.41487139 -21.73857679 11.23460591 -24.5625 13.375 C-27.63687438 18.33366835 -27.82340285 21.51427765 -26.69140625 27.1640625 C-22.65689571 35.06556065 -12.12243647 38.18951973 -4.59179688 41.73828125 C5.76085624 46.74238853 15.08164145 52.24508386 19.4375 63.375 C21.35290215 72.18368561 20.91240452 80.53395984 16.25 88.37109375 C11.51366854 94.62789526 4.12522023 98.26050801 -3.5625 99.375 C-16.58906887 100.14915038 -27.22163578 98.90000082 -37.5625 90.375 C-42.01465357 86.11496563 -44.32756153 83.54969237 -45.5625 77.375 C-42.2625 75.725 -38.9625 74.075 -35.5625 72.375 C-34.675625 73.6125 -33.78875 74.85 -32.875 76.125 C-28.40151994 82.03750162 -23.80278772 85.61247812 -16.5625 87.375 C-9.43978554 88.34257005 -2.66421393 87.32055272 3.4375 83.375 C6.76383333 79.6632477 7.7556705 75.73414837 7.5625 70.8125 C6.5969093 65.63905989 4.63939098 62.54597018 0.4375 59.375 C-3.41040952 57.23197035 -7.32062332 55.30745124 -11.30078125 53.42578125 C-15.38424116 51.49131525 -19.32883498 49.36815569 -23.25 47.125 C-24.34699219 46.50109375 -25.44398437 45.8771875 -26.57421875 45.234375 C-32.88322821 41.30876912 -37.15766292 37.51066411 -39.5625 30.375 C-40.46549939 23.11986696 -40.85377735 15.43481543 -36.890625 9.015625 C-27.85784778 -2.14251156 -13.3417016 -4.89059307 0 0 Z " fill="#1D1D1D" transform="translate(45.5625,106.625)"/>
<path d="M0 0 C3.12291165 1.68012647 5.39164837 3.78329674 7 7 C7.57717357 11.73093088 7.43416625 15.14717343 5.25 19.4375 C2.02597451 23.10930681 0.48376618 23.86261424 -4.375 24.3125 C-8.41724033 23.96403101 -10.65119121 23.28327872 -14 21 C-16.94899302 16.67481024 -17.6475474 13.18037921 -17 8 C-12.834109 0.38647507 -8.33718013 -1.30753912 0 0 Z M-10 4 C-10 4.33 -10 4.66 -10 5 C-7.03 5.33 -4.06 5.66 -1 6 C-0.375 8.3125 -0.375 8.3125 0 11 C-0.99 12.485 -0.99 12.485 -2 14 C-0.68 15.32 0.64 16.64 2 18 C3.85376666 15.27387255 3.99513447 13.86376511 3.875 10.5 C2.91383374 6.65533494 2.18159919 5.29782164 -1 3 C-4.73424825 1.69301311 -6.66150976 1.89798762 -10 4 Z M-11 5 C-13.22095188 7.90432169 -14.02297746 9.42556348 -13.875 13.125 C-13.14828431 16.32230392 -13.14828431 16.32230392 -10 19 C-10 14.38 -10 9.76 -10 5 C-10.33 5 -10.66 5 -11 5 Z M-7 8 C-7 8.99 -7 9.98 -7 11 C-5.35 10.67 -3.7 10.34 -2 10 C-2 9.34 -2 8.68 -2 8 C-3.65 8 -5.3 8 -7 8 Z M-7 13 C-7 14.98 -7 16.96 -7 19 C-7.99 19.33 -8.98 19.66 -10 20 C-7.23749964 21.38125018 -5.05268901 21.19079306 -2 21 C-1.34 20.34 -0.68 19.68 0 19 C-3.17539556 15.57421051 -3.17539556 15.57421051 -7 13 Z " fill="#262424" transform="translate(1159,102)"/>
</svg>
