<?xml version="1.0" encoding="UTF-8"?>
<svg version="1.1" xmlns="http://www.w3.org/2000/svg" width="1549" height="936">
<path d="M0 0 C6.0384418 -0.44242049 10.75171223 2.30037533 15.78515625 5.29296875 C17.3163931 6.8242056 17.02822732 8.22509699 17.09765625 10.35546875 C17.13503906 11.08894531 17.17242188 11.82242187 17.2109375 12.578125 C15.72044574 22.08171922 8.59816203 27.98732912 2.03515625 34.35546875 C1.06032548 35.31877938 0.08636089 36.28296738 -0.88671875 37.24804688 C-5.62744528 41.92778172 -10.44208367 46.48889802 -15.51855469 50.80444336 C-17.33208262 52.39584805 -19.02565784 54.07079486 -20.71484375 55.79296875 C-23.75316792 58.88653518 -26.96249695 61.71402382 -30.24609375 64.54296875 C-32.14507446 66.23095161 -33.93490363 67.98066609 -35.71484375 69.79296875 C-38.10537542 72.22686607 -40.56530637 74.50652434 -43.15234375 76.73046875 C-46.59905591 79.69902431 -49.80595234 82.83375979 -52.96484375 86.10546875 C-54.82276365 87.91177977 -56.71028679 89.58203706 -58.67944336 91.26196289 C-64.02876364 95.93152321 -69.01846234 100.95198097 -74.03125 105.9765625 C-75.05665299 107.00128983 -76.08220421 108.02586886 -77.1078949 109.05030823 C-79.24502438 111.18597305 -81.38035984 113.32341083 -83.5144043 115.4621582 C-86.2296025 118.18305291 -88.94926708 120.89943185 -91.6703043 123.61448574 C-93.7852645 125.72580689 -95.89780582 127.8395355 -98.00965691 129.95396614 C-99.01071038 130.95567966 -100.0124876 131.95667052 -101.01504707 132.95687675 C-106.10126707 138.03377144 -111.06587933 143.14688127 -115.74595642 148.60169983 C-117.67136493 150.81860477 -119.71590295 152.89049407 -121.80859375 154.94921875 C-122.61167969 155.74457031 -123.41476562 156.53992188 -124.2421875 157.359375 C-125.890625 158.98177083 -127.5390625 160.60416667 -129.1875 162.2265625 C-133.44956755 166.44758285 -137.52142934 170.73265266 -141.42773438 175.28320312 C-145.56540539 179.93638725 -150.10492607 184.21845237 -154.54296875 188.58203125 C-158.69135645 192.68808846 -162.63784352 196.87107044 -166.44140625 201.296875 C-170.3719844 205.72093983 -174.67821475 209.79277319 -178.8984375 213.9375 C-182.93306865 217.92835577 -186.75456113 222.00948884 -190.45507812 226.31054688 C-194.17876284 230.50537482 -198.25139914 234.36713802 -202.25390625 238.29296875 C-206.18488211 242.17841207 -209.89342461 246.1682429 -213.5 250.35546875 C-216.26369974 253.47800878 -219.23637434 256.37716057 -222.21484375 259.29296875 C-227.6012642 264.6040268 -227.6012642 264.6040268 -232.65234375 270.23046875 C-236.7155884 275.04193237 -241.27310378 279.3747353 -245.74365234 283.80224609 C-249.42461065 287.46127762 -252.93643038 291.17028067 -256.28125 295.140625 C-259.72372443 298.97255108 -263.44150777 302.53798791 -267.10180664 306.16040039 C-270.08301693 309.12253857 -273.00055155 312.08013309 -275.71484375 315.29296875 C-279.56606591 319.85155824 -283.86147506 323.96399046 -288.09936523 328.15795898 C-291.67182608 331.70754693 -295.06088776 335.32454754 -298.3125 339.171875 C-301.54054534 342.77111241 -305.02258085 346.11965086 -308.45947266 349.51806641 C-311.30156775 352.34053265 -314.06474497 355.16880607 -316.65234375 358.23046875 C-320.52884275 362.80648637 -324.84009055 366.94283076 -329.09912109 371.15771484 C-332.67166294 374.70738633 -336.06081252 378.32445852 -339.3125 382.171875 C-342.54054534 385.77111241 -346.02258085 389.11965086 -349.45947266 392.51806641 C-352.30156775 395.34053265 -355.06474497 398.16880607 -357.65234375 401.23046875 C-360.96057033 405.13566854 -364.57998116 408.69577801 -368.21484375 412.29296875 C-373.62979243 417.63762069 -373.62979243 417.63762069 -378.71484375 423.29296875 C-381.99883976 427.1801477 -385.60118607 430.71626628 -389.21484375 434.29296875 C-393.45139806 438.4904638 -397.59428445 442.6902623 -401.44921875 447.24609375 C-403.31982571 449.41467351 -405.25785585 451.51389523 -407.20703125 453.61181641 C-412.48930099 459.29917913 -417.46759925 465.14467501 -422.21484375 471.29296875 C-420.86787543 474.20972127 -419.33039688 476.5523211 -417.2734375 479.015625 C-416.6944873 479.71324951 -416.11553711 480.41087402 -415.51904297 481.12963867 C-414.90303223 481.8641626 -414.28702148 482.59868652 -413.65234375 483.35546875 C-412.37221874 484.89438396 -411.09227059 486.43344629 -409.8125 487.97265625 C-409.19133301 488.71741211 -408.57016602 489.46216797 -407.93017578 490.22949219 C-405.79617695 492.79660835 -403.6917085 495.38700764 -401.58984375 497.98046875 C-393.72718397 507.57582578 -385.81961556 516.97952989 -376.8828125 525.59765625 C-374.85041582 527.65088276 -372.98123734 529.7034931 -371.109375 531.89453125 C-366.27313797 537.4807098 -360.97091347 542.60736023 -355.71484375 547.79296875 C-344.52328792 558.83449415 -344.52328792 558.83449415 -340.90234375 563.10546875 C-335.25693116 569.7132446 -328.88766325 575.68452929 -322.71484375 581.79296875 C-320.13891156 584.34203499 -317.56650061 586.89458229 -314.99609375 589.44921875 C-314.13171692 590.30114807 -314.13171692 590.30114807 -313.24987793 591.17028809 C-310.33361222 594.06927409 -307.54730182 597.02483901 -304.86523438 600.14257812 C-300.8066832 604.83477717 -296.43464817 609.18043723 -292.02734375 613.54296875 C-291.1660083 614.40051758 -290.30467285 615.25806641 -289.41723633 616.14160156 C-286.68553255 618.86117764 -283.950611 621.57748075 -281.21484375 624.29296875 C-277.60772524 627.87334901 -274.00402573 631.45712056 -270.40234375 635.04296875 C-269.58548096 635.8515332 -268.76861816 636.66009766 -267.92700195 637.49316406 C-264.42495775 640.98033374 -260.99728185 644.47865815 -257.77441406 648.22680664 C-253.447749 653.25438895 -248.75960196 657.91047271 -244.07421875 662.6015625 C-243.10159547 663.57741052 -242.12904239 664.55332851 -241.15655518 665.52931213 C-239.12778011 667.56403459 -237.09699045 669.59672132 -235.06494141 671.62817383 C-232.49055901 674.20245485 -229.92312038 676.78354102 -227.35741806 679.36646938 C-225.35316525 681.38196463 -223.34425776 683.39277297 -221.33411407 685.40239143 C-219.9338438 686.80437963 -218.53809892 688.21088316 -217.14251709 689.61753845 C-211.91144605 694.83026886 -206.51732474 699.66063742 -200.74639893 704.27015686 C-198.15652364 706.33956881 -195.62161695 708.46557249 -193.08984375 710.60546875 C-179.9933251 721.27189683 -165.975889 730.13443369 -151.21484375 738.29296875 C-150.46009766 738.71819824 -149.70535156 739.14342773 -148.92773438 739.58154297 C-130.87627128 749.72671486 -111.63216267 757.18591603 -91.91308594 763.43017578 C-85.59268719 765.5119036 -80.57909466 768.38107612 -75.21484375 772.29296875 C-74.13074219 773.040625 -73.04664063 773.78828125 -71.9296875 774.55859375 C-71.01316406 775.2134375 -70.09664062 775.86828125 -69.15234375 776.54296875 C-68.21261719 777.208125 -67.27289062 777.87328125 -66.3046875 778.55859375 C-65.61503906 779.1309375 -64.92539063 779.70328125 -64.21484375 780.29296875 C-64.21484375 780.95296875 -64.21484375 781.61296875 -64.21484375 782.29296875 C-67.20701141 783.93269831 -70.20982179 785.55193472 -73.21484375 787.16796875 C-74.47361328 787.85826172 -74.47361328 787.85826172 -75.7578125 788.5625 C-89.2906048 795.8009703 -103.36700194 795.53150785 -118.40234375 795.54296875 C-119.19963898 795.54364349 -119.9969342 795.54431824 -120.81838989 795.54501343 C-172.49072681 795.47579699 -218.90351819 777.2771231 -259.21484375 745.29296875 C-259.75254395 744.87241211 -260.29024414 744.45185547 -260.84423828 744.01855469 C-270.08586699 736.72116359 -278.33406251 728.35259683 -286.65234375 720.04296875 C-287.2209613 719.47543884 -287.78957886 718.90790894 -288.37542725 718.32318115 C-294.02048306 712.67690245 -299.62736366 707.04036108 -304.78344727 700.93652344 C-306.35228562 699.13515557 -308.01140643 697.46728948 -309.71484375 695.79296875 C-312.0732904 693.47363399 -314.29351088 691.09860838 -316.44921875 688.58984375 C-320.17856294 684.3007037 -324.0525167 680.16486773 -327.96484375 676.04296875 C-333.50575484 670.18143548 -338.99806328 664.28365577 -344.43359375 658.32421875 C-347.70658852 654.74497886 -351.02502069 651.20842188 -354.33984375 647.66796875 C-358.88608776 642.81028817 -363.37597145 637.91110939 -367.80859375 632.94921875 C-370.90704608 629.52884929 -374.06001571 626.16128767 -377.21484375 622.79296875 C-381.84805356 617.84555981 -386.43133544 612.8619299 -390.94921875 607.80859375 C-393.63863641 604.82241276 -396.36119331 601.86827063 -399.08984375 598.91796875 C-399.85059204 598.09534546 -399.85059204 598.09534546 -400.62670898 597.25610352 C-401.13403564 596.70752686 -401.6413623 596.1589502 -402.1640625 595.59375 C-408.36801136 588.88512655 -414.55171168 582.15833185 -420.65234375 575.35546875 C-425.10882086 570.39058784 -429.63432437 565.49161923 -434.1640625 560.59375 C-440.36801136 553.88512655 -446.55171168 547.15833185 -452.65234375 540.35546875 C-456.11999809 536.49151106 -459.62795497 532.66751722 -463.15234375 528.85546875 C-463.66039551 528.3032666 -464.16844727 527.75106445 -464.69189453 527.18212891 C-467.09025789 524.57720794 -469.50243142 521.99391035 -471.95703125 519.44140625 C-477.84166516 513.23481668 -482.22724277 506.85884742 -486.21484375 499.29296875 C-487.86484375 499.95296875 -489.51484375 500.61296875 -491.21484375 501.29296875 C-491.37665925 576.23209269 -491.37665925 576.23209269 -490.77734375 651.16796875 C-490.76638924 651.99408409 -490.75543472 652.82019943 -490.74414825 653.67134857 C-490.47452881 673.81457632 -490.12460719 693.95587731 -489.71783447 714.09680176 C-489.55980526 721.9599701 -489.41119498 729.82331265 -489.26489258 737.68670654 C-489.21564943 740.25101329 -489.16192768 742.81519486 -489.10742188 745.37939453 C-489.02791182 749.20951521 -488.96929585 753.03936065 -488.92874146 756.87008667 C-488.90372473 758.81083511 -488.85857738 760.75129355 -488.81225586 762.69165039 C-488.75414454 771.34289616 -489.91271721 778.68366765 -495.90234375 785.23046875 C-506.21734035 791.65301381 -517.5976405 791.47967598 -529.40380859 791.47827148 C-531.44650402 791.4804492 -533.48865025 791.49863327 -535.53125 791.51757812 C-559.12427175 791.62138542 -559.12427175 791.62138542 -567.21484375 784.29296875 C-574.61224475 774.55954638 -573.50943354 761.47345647 -573.49331665 749.81506348 C-573.49832744 748.15668737 -573.50420552 746.4983137 -573.51086938 744.83994341 C-573.52660883 740.30218661 -573.53009699 735.76449183 -573.53151798 731.22671103 C-573.53522622 726.31787612 -573.55039623 721.40907464 -573.56413269 716.5002594 C-573.58932955 706.85984137 -573.60406265 697.21943405 -573.61544777 687.57899094 C-573.62932517 676.23223285 -573.65431708 664.88550692 -573.67983107 653.53877002 C-573.72537902 633.14223132 -573.76191036 612.74568661 -573.79296875 592.34912109 C-573.82268379 572.84552824 -573.85695781 553.34195245 -573.89746094 533.83837891 C-573.8999181 532.65228287 -573.90237527 531.46618683 -573.9049069 530.24414849 C-573.91728149 524.27742391 -573.92972368 518.31069946 -573.94219065 512.34397507 C-574.00541008 482.04020091 -574.06539318 451.73643075 -574.10626221 421.43261719 C-574.10777701 420.31218309 -574.10929181 419.19174899 -574.11085251 418.03736234 C-574.12424614 408.08665471 -574.13731115 398.13594668 -574.14980936 388.18523788 C-574.18201427 362.65754896 -574.23316768 337.13008361 -574.31991298 311.60252151 C-574.35218234 301.96157962 -574.37470867 292.32061363 -574.39521873 282.67964029 C-574.41231595 274.87863021 -574.44201731 267.07778545 -574.48169422 259.27685738 C-574.50201776 254.6801228 -574.51012059 250.08343309 -574.51430559 245.4866581 C-574.51868115 243.42482525 -574.52817984 241.36299528 -574.54343367 239.30121422 C-574.56324641 236.54751463 -574.56468242 233.79440379 -574.56137085 231.04064941 C-574.57156868 230.26040012 -574.5817665 229.48015082 -574.59227335 228.67625761 C-574.54375968 221.07714452 -572.28221718 214.48809173 -567.078125 208.83203125 C-557.98514023 201.32126396 -545.22509589 202.08458508 -534.13574219 202.05273438 C-532.11480584 202.0430879 -530.09491517 202.01201133 -528.07421875 201.98046875 C-503.82246307 201.88554994 -503.82246307 201.88554994 -496.21484375 209.29296875 C-491.41808849 216.5896616 -491.06587577 223.95426621 -491.090271 232.45352173 C-491.08886085 233.36645819 -491.0874507 234.27939465 -491.08599782 235.21999586 C-491.08235284 238.27379538 -491.08567784 241.32754822 -491.08886719 244.38134766 C-491.08747204 246.57275936 -491.08557248 248.76417079 -491.08320618 250.95558167 C-491.07871319 255.67164959 -491.07685318 260.38770883 -491.07674408 265.10377884 C-491.07560362 272.55727597 -491.0627658 280.01072359 -491.04718018 287.46420288 C-491.04460732 288.72203602 -491.04203447 289.97986917 -491.03938365 291.27581847 C-491.03411738 293.84750752 -491.0288319 296.41919653 -491.02352762 298.9908855 C-491.01015911 305.59450767 -490.99787449 312.19813137 -490.98681641 318.80175781 C-490.98570285 319.46422266 -490.98458928 320.1266875 -490.98344198 320.80922703 C-490.96584731 331.5567521 -490.96299943 342.30423954 -490.96466681 353.0517766 C-490.96594514 364.09001314 -490.94789195 375.12810469 -490.91364884 386.16628778 C-490.89515487 392.36252859 -490.8858765 398.55848675 -490.89812469 404.7547493 C-490.90952419 410.57761666 -490.89794487 416.39997673 -490.86849022 422.22277641 C-490.86182655 424.36256809 -490.86375564 426.50240588 -490.87478828 428.64217949 C-490.88857607 431.55752753 -490.87186361 434.47114274 -490.84735107 437.38638306 C-490.85870645 438.23832044 -490.87006183 439.09025783 -490.88176131 439.9680115 C-490.81139083 444.97156302 -490.81139083 444.97156302 -487.67531204 448.84963036 C-486.86335751 449.32593203 -486.05140297 449.8022337 -485.21484375 450.29296875 C-482.69744561 447.1078461 -480.73271205 443.74891284 -478.71484375 440.23046875 C-475.17515908 434.27770691 -471.09661375 429.76493507 -466.0234375 425.0234375 C-463.98296276 423.03972144 -462.20614375 421.13560426 -460.38696289 418.97387695 C-455.39428811 413.23864663 -449.96865944 407.9357549 -444.57693481 402.57989502 C-442.61452735 400.6304012 -440.65539221 398.6776695 -438.69702148 396.72412109 C-433.83533178 391.8757096 -428.96818231 387.03279106 -424.10119629 382.18969727 C-419.97759433 378.08591457 -415.85610749 373.98002908 -411.73733521 369.87139893 C-409.81905861 367.95954396 -407.89776632 366.05075669 -405.97631836 364.14208984 C-399.18640284 357.43341932 -399.18640284 357.43341932 -392.78320312 350.36132812 C-387.75996562 344.46498934 -382.14083388 339.1102058 -376.6509552 333.65391541 C-374.52053249 331.53638787 -372.39336453 329.41563725 -370.26696777 327.29406738 C-364.98789441 322.02828355 -359.70336638 316.76798483 -354.41900635 311.50750732 C-349.94311073 307.05141814 -345.46932046 302.5932349 -340.99824524 298.13230896 C-338.91377197 296.05426533 -336.82628454 293.9792834 -334.73864746 291.90441895 C-333.44736015 290.61676786 -332.15621511 289.32897408 -330.86523438 288.04101562 C-330.29360062 287.47454819 -329.72196686 286.90808075 -329.13301086 286.32444763 C-326.22278177 283.41459399 -323.44120707 280.44110044 -320.74926758 277.32739258 C-317.33059943 273.37791213 -313.72133149 269.67128599 -310.01367188 265.99414062 C-309.33139023 265.31331924 -308.64910858 264.63249786 -307.94615173 263.93104553 C-306.47848155 262.46715271 -305.00965833 261.00441516 -303.53977966 259.54273987 C-301.20773683 257.22357362 -298.87893107 254.90119916 -296.55090332 252.57800293 C-290.77097049 246.81137107 -284.98558818 241.05021641 -279.20037842 235.28887939 C-274.30172919 230.41002365 -269.40517548 225.52908267 -264.51133728 220.645401 C-262.22742857 218.36793001 -259.94050729 216.09351469 -257.65344238 213.81921387 C-256.24081743 212.41022461 -254.82833446 211.00109297 -253.41601562 209.59179688 C-252.78827744 208.96922501 -252.16053925 208.34665314 -251.51377869 207.70521545 C-248.48383166 204.67562626 -245.57185316 201.59479165 -242.7722168 198.3503418 C-239.06623293 194.06443908 -235.11513093 190.0668083 -231.09570312 186.07617188 C-230.31588577 185.29781479 -229.53606842 184.5194577 -228.73262024 183.71751404 C-227.05213838 182.04081489 -225.37050307 180.36527114 -223.68782043 178.69078064 C-221.01974082 176.03555297 -218.35487486 173.37713678 -215.6907959 170.71789551 C-209.5553567 164.59480773 -203.4152601 158.47639999 -197.27490997 152.35823822 C-191.1918492 146.29704539 -185.11081027 140.23383761 -179.03315735 134.16722107 C-176.41685724 131.55736944 -173.79754676 128.95056548 -171.17810059 126.34387207 C-169.56324615 124.73265261 -167.94853332 123.12129121 -166.33398438 121.50976562 C-165.6127388 120.79368637 -164.89149323 120.07760712 -164.14839172 119.33982849 C-160.26785098 115.45968942 -156.59369881 111.47359381 -153.00910378 107.3199234 C-149.73009141 103.61566133 -146.23151419 100.1277331 -142.74780273 96.6171875 C-141.93046158 95.79006256 -141.11312042 94.96293762 -140.27101135 94.11074829 C-137.5874776 91.39750555 -134.8998811 88.68834981 -132.2109375 85.98046875 C-131.28603075 85.04899017 -130.361124 84.1175116 -129.40818977 83.1578064 C-125.51663561 79.23992645 -121.62340996 75.32371812 -117.72627163 71.41139221 C-112.18375751 65.84700514 -106.65153582 60.27281057 -101.1329779 54.68466091 C-97.22736923 50.73151738 -93.31005766 46.79020628 -89.38422447 42.85714817 C-87.05116611 40.5191805 -84.72486852 38.17512202 -82.40795708 35.82113647 C-70.75843324 23.9952725 -59.90293596 13.33010642 -43.58984375 8.54296875 C-42.94362061 8.35307373 -42.29739746 8.16317871 -41.6315918 7.9675293 C-32.95757546 5.5162881 -24.08181797 3.87087722 -15.21484375 2.29296875 C-13.93480469 2.06480469 -12.65476562 1.83664063 -11.3359375 1.6015625 C-7.56529492 0.97676309 -3.78777044 0.50102784 0 0 Z " fill="#000000" transform="translate(1444.21484375,-0.29296875)"/>
<path d="M0 0 C0.98378303 -0.00320648 1.96756606 -0.00641296 2.9811607 -0.0097166 C6.29173982 -0.01804608 9.60213941 -0.01208193 12.91272163 -0.00622082 C15.30458385 -0.00924015 17.6964451 -0.01312853 20.08830464 -0.01781338 C25.29597732 -0.02597366 30.50361411 -0.02788611 35.71129036 -0.02431011 C43.45533948 -0.01900645 51.19935049 -0.02509502 58.94339546 -0.03339304 C73.57837839 -0.04864351 88.21334402 -0.05033704 102.84833322 -0.04787002 C114.14865888 -0.04603822 125.44897887 -0.04779458 136.74930382 -0.05209446 C138.37211876 -0.05269686 139.99493371 -0.05329806 141.61774866 -0.05389806 C144.06309918 -0.0548053 146.5084497 -0.05571397 148.95380021 -0.05663041 C171.69323504 -0.06506157 194.43266772 -0.06939451 217.17210388 -0.06522369 C218.02956499 -0.06506732 218.8870261 -0.06491094 219.77047087 -0.06474983 C224.1165408 -0.06394403 228.46261072 -0.06309826 232.80868064 -0.06223653 C233.67184203 -0.06206544 234.53500342 -0.06189435 235.42432121 -0.06171808 C237.16984365 -0.06137142 238.91536608 -0.06102289 240.66088852 -0.06067249 C267.82371332 -0.05531479 294.98650567 -0.06324642 322.14932442 -0.08170605 C352.65894872 -0.10241579 383.16855291 -0.11315073 413.67818463 -0.10913056 C416.93046768 -0.10873521 420.18275074 -0.10837366 423.4350338 -0.10803318 C424.63624714 -0.10789708 424.63624714 -0.10789708 425.86172741 -0.10775824 C437.95779354 -0.10659161 450.05383938 -0.11324551 462.14990044 -0.1238451 C475.90445886 -0.13588562 489.65897257 -0.13746932 503.41353165 -0.12505493 C511.11262538 -0.11841724 518.81161222 -0.12007829 526.51069744 -0.13364345 C532.25590051 -0.14283898 538.00100038 -0.13639272 543.74619307 -0.12379565 C546.07319306 -0.12113308 548.40020546 -0.12356378 550.72719334 -0.13153151 C553.88508703 -0.14159594 557.04241608 -0.13325075 560.20028687 -0.12025452 C561.10807603 -0.12756386 562.01586519 -0.13487321 562.95116311 -0.14240405 C569.62880719 -0.08526732 575.67324766 0.70173868 580.60098457 5.62947559 C586.96007722 15.90185602 586.41681036 28.92642952 586.47598457 40.62947559 C586.48516914 41.63921436 586.49435371 42.64895313 586.5038166 43.68929005 C586.46843397 52.27948505 586.0298636 60.48328339 580.22598457 67.25447559 C569.78197044 73.5644008 556.45378213 72.40625061 544.65315437 72.37473011 C543.45781667 72.37558454 542.26247896 72.37643896 541.0309189 72.37731928 C537.75381893 72.37866953 534.47675965 72.37559063 531.19966447 72.37054121 C527.65043929 72.366187 524.10121571 72.36768664 520.5519886 72.36844349 C514.41621334 72.3689656 508.28044878 72.36585166 502.14467621 72.36020565 C493.27358752 72.35204802 484.40250396 72.34947108 475.53141192 72.34821766 C461.13557319 72.34603382 446.73974014 72.33939188 432.3439045 72.32991505 C418.36701676 72.32072362 404.39013058 72.31365127 390.41324043 72.30940723 C389.55042712 72.30914451 388.68761381 72.30888179 387.79865464 72.3086111 C383.46979223 72.30730598 379.14092981 72.30604229 374.81206739 72.3047992 C338.95003577 72.29444739 303.08801061 72.2768473 267.22598457 72.25447559 C266.52809309 77.79983791 266.10068418 83.22449026 266.09900093 88.82243824 C266.09743935 89.53253564 266.09587776 90.24263303 266.09426886 90.97424853 C266.09030184 93.34030293 266.09343135 95.70629188 266.09659004 98.07234669 C266.09525419 99.79799402 266.09349682 101.52364108 266.09135723 103.24928761 C266.08682505 107.99986912 266.08869714 112.75042946 266.09177279 117.50101137 C266.09367279 121.61106599 266.09199432 125.72111619 266.09032291 129.83117068 C266.08527987 142.349882 266.09010323 154.86857863 266.09721184 167.38728809 C266.1012471 174.642659 266.10307667 181.89802958 266.1046772 189.15340137 C266.12459991 269.29885535 266.31785188 349.4437229 266.62421475 438.83249054 C266.6268336 439.59094124 266.62945245 440.34939194 266.63215065 441.130826 C266.63606942 442.26570755 266.63606942 442.26570755 266.64006735 443.423516 C266.65820171 448.68784415 266.67590388 453.95217363 266.69335365 459.2165041 C266.75557037 477.97375824 266.82152348 496.73099377 266.89352417 515.48821306 C266.90423203 518.28139257 266.914757 521.07457267 266.92511368 523.86775351 C267.04053431 554.95847455 267.21026626 586.0474584 267.53296803 617.13678288 C267.56155641 619.90994602 267.58937299 622.68311662 267.61713177 625.45628816 C267.65110464 628.84873696 267.68544534 632.241182 267.71989632 635.63362598 C267.72996651 636.62646164 267.72996651 636.62646164 267.74024013 637.63935459 C267.82550474 646.00352214 267.92210841 654.36746141 268.02935553 662.73137474 C268.08776095 667.43499151 268.13773231 672.13867272 268.18570781 676.84240627 C268.20970001 679.00141788 268.23745086 681.16039175 268.26937413 683.31930065 C268.72612473 714.40297651 268.72612473 714.40297651 262.22598457 721.25447559 C244.85280683 733.51789518 212.60048853 729.90487528 192.67129707 726.99275684 C186.47896623 725.66582881 181.32170412 724.22463289 177.55020332 718.87947559 C174.57623423 713.24987776 173.10052588 707.95001203 173.10178608 701.57466859 C173.09953878 700.65607903 173.09729149 699.73748948 173.0949761 698.79106387 C173.09760311 697.78864828 173.10023012 696.78623268 173.10293674 695.75344086 C173.1017829 694.67893109 173.10062906 693.60442133 173.09944025 692.49735066 C173.09677902 688.87224346 173.10129174 685.24718005 173.10573006 681.62207508 C173.10529425 679.00676107 173.10441918 676.3914471 173.10314089 673.77613336 C173.10106612 668.07735583 173.1027127 662.37858874 173.1067791 656.67981243 C173.11280893 648.20591308 173.11311538 639.73202032 173.11223711 631.25811922 C173.11092249 617.0043462 173.11426737 602.75057782 173.12025452 588.49680614 C173.12616861 574.38083021 173.13001987 560.26485621 173.13110733 546.14887905 C173.13117607 545.27166524 173.13124481 544.39445142 173.13131563 543.49065537 C173.13165396 539.03585174 173.13195534 534.5810481 173.13224251 530.12624446 C173.13434373 498.56099532 173.14108334 466.9957487 173.15054512 435.43050098 C173.15972733 404.76253237 173.16681204 374.09456445 173.17105293 343.42659473 C173.17118446 342.48151497 173.17131599 341.53643521 173.1714515 340.56271667 C173.17277 331.07196262 173.17404582 321.58120857 173.17529036 312.09045451 C173.17782667 292.7561562 173.18064792 273.42185794 173.18364143 254.0875597 C173.18384737 252.75407764 173.18384737 252.75407764 173.18405746 251.39365655 C173.19326038 192.01392852 173.20910584 132.63420188 173.22598457 73.25447559 C172.2911477 73.25724097 171.35631083 73.26000635 170.39314556 73.26285553 C147.63264607 73.32949326 124.87215924 73.37877143 102.11158276 73.40991211 C91.10467814 73.42537229 80.09783802 73.44644562 69.09097481 73.48079395 C59.49592003 73.51072225 49.90091198 73.53005677 40.30581182 73.53674108 C35.2266187 73.54064751 30.14755921 73.54981058 25.06840897 73.57166576 C20.284029 73.59208505 15.49983726 73.59829839 10.71541786 73.59379864 C8.9631129 73.5946214 7.21080141 73.60055454 5.45853424 73.61209202 C-14.09401426 73.73447646 -14.09401426 73.73447646 -21.21151543 68.44197559 C-30.47888157 55.46766299 -26.21650544 30.65250855 -24.50448418 15.78572559 C-23.50511244 10.95453815 -22.00912653 7.45620531 -18.46151543 4.00447559 C-12.48324058 0.11164546 -6.90270548 -0.03325873 0 0 Z " fill="#000000" transform="translate(25.774015426635742,62.745524406433105)"/>
<path d="M0 0 C1.38020828 0.00273422 1.38020828 0.00273422 2.78829956 0.00552368 C67.69168722 0.2210889 131.41919368 18.56479459 178.8125 64.3125 C179.51375 64.95058594 180.215 65.58867187 180.9375 66.24609375 C221.98420374 104.64186454 236.51915326 165.31525798 238.8125 219.3125 C240.80264776 286.60170195 226.13714077 354.31056749 179.09765625 404.83984375 C177.18346117 406.91110099 175.36662389 409.02164701 173.5625 411.1875 C156.64029846 430.57255717 134.42215306 445.40230234 111.8125 457.3125 C111.17715332 457.64991211 110.54180664 457.98732422 109.88720703 458.33496094 C59.88169004 484.47913585 -0.7847275 487.91951826 -54.28710938 471.35595703 C-79.71275602 463.08641515 -103.27026965 450.98443226 -124.1875 434.3125 C-125.1878125 433.51714844 -126.188125 432.72179687 -127.21875 431.90234375 C-142.51746034 419.47467944 -155.7857374 405.37043882 -167.1875 389.3125 C-167.62610352 388.70792969 -168.06470703 388.10335938 -168.51660156 387.48046875 C-207.35996234 333.70194009 -219.87136527 261.04703416 -210.1875 196.3125 C-201.55169735 145.04461825 -178.08885842 96.90393664 -142.1875 59.3125 C-141.31480469 58.38695312 -140.44210937 57.46140625 -139.54296875 56.5078125 C-132.62287848 49.35468844 -125.19936063 43.18223298 -117.1875 37.3125 C-116.62111816 36.89645508 -116.05473633 36.48041016 -115.47119141 36.05175781 C-81.43812587 11.42295113 -41.71626287 -0.17168735 0 0 Z M-67.1875 77.3125 C-68.19296875 78.10527344 -68.19296875 78.10527344 -69.21875 78.9140625 C-100.74288955 104.30850825 -108.17234235 151.39150308 -113.5 188.6875 C-113.67160645 189.86884521 -113.84321289 191.05019043 -114.02001953 192.26733398 C-115.94626835 206.43299589 -114.85278886 219.97930782 -113.4375 234.125 C-113.30211823 235.49251907 -113.30211823 235.49251907 -113.16400146 236.88766479 C-109.55794048 273.00413647 -102.11813953 308.47645648 -86.1875 341.3125 C-85.81254395 342.08835449 -85.43758789 342.86420898 -85.05126953 343.66357422 C-76.658484 360.80918564 -66.0543491 376.21443822 -53.1875 390.3125 C-52.71876465 390.82651367 -52.2500293 391.34052734 -51.76708984 391.87011719 C-34.45134842 410.58635343 -10.15620515 425.59652351 15.77319336 427.53369141 C42.90680263 428.53619092 66.18053425 423.30704589 87.0625 404.8125 C88.65207174 403.31911254 90.23580549 401.81947673 91.8125 400.3125 C92.48796875 399.71179688 93.1634375 399.11109375 93.859375 398.4921875 C127.76605637 367.16241391 137.86403174 303.9529406 139.8125 260.3125 C141.83437997 198.53895322 128.20478512 136.04543998 84.97729492 89.62402344 C72.85786696 76.87652531 59.29758304 66.71925873 42.8125 60.3125 C41.91917969 59.95671875 41.02585937 59.6009375 40.10546875 59.234375 C5.41154701 46.51485239 -39.21894445 52.48534018 -67.1875 77.3125 Z " fill="#000000" transform="translate(568.1875,208.6875)"/>
<path d="M0 0 C1.04341553 0.50732666 1.04341553 0.50732666 2.10791016 1.02490234 C15.56973593 7.65250724 26.12813635 15.157518 31.39135742 29.78930664 C32.46212952 33.67853301 32.53061195 37.48551714 32.5 41.5 C32.49500488 42.36858643 32.49000977 43.23717285 32.48486328 44.13208008 C32.18039908 55.60828067 29.16141835 68.44199098 21 77 C16.24625565 80.00184685 11.42567296 79.80476489 6 79 C0.44217349 77.14739116 -4.75199947 74.5788017 -10 72 C-59.77815895 46.2235924 -59.77815895 46.2235924 -114.23828125 45.90234375 C-128.54269927 51.58769236 -138.24563888 59.32915061 -144.55859375 73.4609375 C-150.66983543 88.46577479 -150.91580339 104.00911509 -144.74609375 119.05859375 C-141.42720798 126.15757284 -137.26020428 132.20360618 -132 138 C-131.52860596 138.52319824 -131.05721191 139.04639648 -130.5715332 139.58544922 C-125.65088432 144.79658102 -120.04931987 148.60410076 -114.0625 152.5 C-113.00836914 153.19359619 -111.95423828 153.88719238 -110.86816406 154.60180664 C-95.67125494 164.55431436 -80.21012889 174.07316149 -64.66970825 183.47650146 C21.84483168 235.82744126 21.84483168 235.82744126 34.47998047 284.76464844 C42.69623463 320.08296916 37.77630144 358.6563696 18.63574219 389.72875977 C14.51660873 396.1527308 9.96244164 402.20409808 5 408 C4.29101562 408.83144531 3.58203125 409.66289063 2.8515625 410.51953125 C-29.53774007 447.51152418 -73.82149929 458.084295 -120.95361328 461.26611328 C-121.86481934 461.33427246 -122.77602539 461.40243164 -123.71484375 461.47265625 C-124.52042725 461.52687744 -125.32601074 461.58109863 -126.15600586 461.63696289 C-127.06878296 461.81666626 -127.06878296 461.81666626 -128 462 C-128.33 462.66 -128.66 463.32 -129 464 C-136.08183149 463.45422335 -142.8599692 462.31600996 -149.78125 460.7421875 C-151.28724762 460.40637665 -151.28724762 460.40637665 -152.82366943 460.06378174 C-156.05076558 459.3413124 -159.27553049 458.60909716 -162.5 457.875 C-163.59759644 457.62667419 -164.69519287 457.37834839 -165.8260498 457.12249756 C-234.82695111 441.49462762 -234.82695111 441.49462762 -251.0703125 419.15234375 C-259.59148829 405.44837489 -264.60250258 388.14372973 -263 372 C-261.51003421 366.07235231 -259.25233282 360.42543445 -254 357 C-239.6917786 354.12280331 -226.05316637 364.64233328 -214.52734375 371.75390625 C-213.75527588 372.22948975 -212.98320801 372.70507324 -212.18774414 373.19506836 C-210.70280972 374.11317887 -209.2212101 375.03671762 -207.74389648 375.96704102 C-196.98122855 382.6574149 -186.20717948 387.22573861 -174 390.625 C-173.32290985 390.81732208 -172.6458197 391.00964417 -171.94821167 391.20779419 C-160.73726619 394.39121013 -149.51252918 397.14901767 -138 399 C-137.32582031 399.11424316 -136.65164063 399.22848633 -135.95703125 399.34619141 C-113.43716271 403.07922462 -91.97702537 402.75115234 -72.65234375 389.375 C-59.84184347 379.10685334 -54.22063357 361.71525297 -52 346 C-50.51433356 329.04166116 -54.54302719 312.58934845 -65.27734375 299.1484375 C-67.45472214 296.69209382 -69.68588442 294.32726396 -72 292 C-72.86625 291.113125 -73.7325 290.22625 -74.625 289.3125 C-75.800625 288.1678125 -75.800625 288.1678125 -77 287 C-77.49121338 286.49122314 -77.98242676 285.98244629 -78.48852539 285.45825195 C-82.65501805 281.1712736 -87.03063402 277.45392694 -91.8125 273.875 C-92.91936157 273.0404126 -92.91936157 273.0404126 -94.04858398 272.18896484 C-96.36053499 270.45225363 -98.67990219 268.72580643 -101 267 C-102.06637695 266.19852539 -102.06637695 266.19852539 -103.15429688 265.38085938 C-115.94679687 255.78352589 -129.3795392 247.36366469 -143 239 C-164.56244385 225.72848183 -185.39371468 212.28603735 -204 195 C-204.67804688 194.38769531 -205.35609375 193.77539062 -206.0546875 193.14453125 C-212.37861269 187.18886677 -217.17791833 180.17798876 -222 173 C-222.58007812 172.14277344 -223.16015625 171.28554688 -223.7578125 170.40234375 C-238.83702431 146.75719224 -243.34986258 116.2639529 -238 89 C-233.7944354 70.02386366 -225.45250945 52.92937721 -213 38 C-212.35546875 37.20464844 -211.7109375 36.40929687 -211.046875 35.58984375 C-205.98823622 29.59556243 -200.19612753 24.78011501 -194 20 C-193.19304687 19.35417969 -192.38609375 18.70835937 -191.5546875 18.04296875 C-137.34107228 -23.67942165 -60.71215886 -29.69175611 0 0 Z " fill="#000000" transform="translate(1511,224)"/>
<path d="M0 0 C9 0 9 0 11.12670898 1.56445312 C11.59923096 2.29599609 12.07175293 3.02753906 12.55859375 3.78125 C13.11788574 4.60496094 13.67717773 5.42867187 14.25341797 6.27734375 C14.82979004 7.17582031 15.40616211 8.07429687 16 9 C17.31970147 10.86778327 18.64407908 12.73226967 19.97265625 14.59375 C21.33852499 16.56070575 22.70177918 18.52947946 24.0625 20.5 C24.74376953 21.48097656 25.42503906 22.46195313 26.12695312 23.47265625 C30.14927936 29.2762432 34.08177944 35.12266916 38 41 C38.33 27.47 38.66 13.94 39 0 C41.31 0 43.62 0 46 0 C46 17.49 46 34.98 46 53 C37 53 37 53 34.1015625 50.28125 C33.24506263 49.04167637 32.42095024 47.77929591 31.625 46.5 C31.1722168 45.8294458 30.71943359 45.1588916 30.25292969 44.46801758 C29.29764301 43.0490778 28.35514111 41.62145734 27.42480469 40.18603516 C25.55745653 37.3210188 23.60605042 34.51847853 21.65380859 31.7109375 C20.3262451 29.79739902 19.01256289 27.87518997 17.703125 25.94921875 C14.50390854 21.27521898 11.24810914 16.64015591 8 12 C7.67 25.53 7.34 39.06 7 53 C4.69 53 2.38 53 0 53 C0 35.51 0 18.02 0 0 Z " fill="#000000" transform="translate(1127,852)"/>
<path d="M0 0 C24 0 24 0 31 3 C34.45239166 6.63409648 35.86994703 9.27679818 36.25 14.3125 C35.97084473 18.43004024 35.2830626 20.5754061 33 24 C29.2909042 26.99884341 27.8295217 28 23 28 C23.34780518 28.57967529 23.69561035 29.15935059 24.05395508 29.7565918 C28.70263672 37.50439453 33.35131836 45.25219727 38 53 C34.84803637 53.56735345 32.13648827 53.72340751 29 53 C26.27516641 50.44909196 24.76659002 47.2572894 23 44 C22.29343917 42.85422569 21.57810373 41.71382992 20.85546875 40.578125 C15 31.35221624 15 31.35221624 15 29 C12.36 29 9.72 29 7 29 C7 36.92 7 44.84 7 53 C4.69 53 2.38 53 0 53 C0 35.51 0 18.02 0 0 Z M7 6 C7 11.61 7 17.22 7 23 C16.94047254 23.41611084 16.94047254 23.41611084 26 20 C28.34813734 18.06832602 28.34813734 18.06832602 28.375 14.625 C28.30970975 10.99990917 28.30970975 10.99990917 26.25 8.625 C22.12219894 5.64381035 18.24873763 5.88751262 13.25 5.9375 C10.15625 5.9684375 10.15625 5.9684375 7 6 Z " fill="#000000" transform="translate(878,852)"/>
<path d="M0 0 C24 0 24 0 31 3 C34.45239166 6.63409648 35.86994703 9.27679818 36.25 14.3125 C35.97084473 18.43004024 35.2830626 20.5754061 33 24 C29.2909042 26.99884341 27.8295217 28 23 28 C23.34780518 28.57967529 23.69561035 29.15935059 24.05395508 29.7565918 C28.70263672 37.50439453 33.35131836 45.25219727 38 53 C34.84803637 53.56735345 32.13648827 53.72340751 29 53 C26.27516641 50.44909196 24.76659002 47.2572894 23 44 C22.29343917 42.85422569 21.57810373 41.71382992 20.85546875 40.578125 C15 31.35221624 15 31.35221624 15 29 C12.36 29 9.72 29 7 29 C7 36.92 7 44.84 7 53 C4.69 53 2.38 53 0 53 C0 35.51 0 18.02 0 0 Z M7 6 C7 11.61 7 17.22 7 23 C16.94047254 23.41611084 16.94047254 23.41611084 26 20 C28.34813734 18.06832602 28.34813734 18.06832602 28.375 14.625 C28.30970975 10.99990917 28.30970975 10.99990917 26.25 8.625 C22.12219894 5.64381035 18.24873763 5.88751262 13.25 5.9375 C10.15625 5.9684375 10.15625 5.9684375 7 6 Z " fill="#000000" transform="translate(155,852)"/>
<path d="M0 0 C2.64 0 5.28 0 8 0 C8.34667725 0.82910889 8.69335449 1.65821777 9.05053711 2.51245117 C10.67858342 6.40452881 12.3077439 10.29613807 13.9375 14.1875 C14.23079193 14.88796448 14.52408386 15.58842896 14.82626343 16.31011963 C18.98353475 26.23547146 23.17488565 36.14478707 27.45874023 46.01635742 C30 51.89614673 30 51.89614673 30 53 C27.03 53 24.06 53 21 53 C18.525 47.06 18.525 47.06 16 41 C3.13 40.505 3.13 40.505 -10 40 C-10.495 42.475 -10.495 42.475 -11 45 C-11.97265625 47.23828125 -11.97265625 47.23828125 -13.0625 49.3125 C-13.42472656 50.00988281 -13.78695312 50.70726562 -14.16015625 51.42578125 C-14.43730469 51.94527344 -14.71445312 52.46476563 -15 53 C-17.64 53 -20.28 53 -23 53 C-18.81434653 41.46445106 -13.75719347 30.35394978 -8.6875 19.1875 C-7.84276706 17.31981153 -6.99836356 15.45197403 -6.15429688 13.58398438 C-4.10665453 9.05426423 -2.05457852 4.52657801 0 0 Z M3 9 C-0.3 17.25 -3.6 25.5 -7 34 C-0.4 34 6.2 34 13 34 C12.26268982 30.31344912 11.53481038 27.53802554 10.15234375 24.13671875 C9.61577148 22.80737305 9.61577148 22.80737305 9.06835938 21.45117188 C8.50858398 20.0831543 8.50858398 20.0831543 7.9375 18.6875 C7.37192383 17.29047852 7.37192383 17.29047852 6.79492188 15.86523438 C5.86716875 13.57521083 4.93541999 11.28690004 4 9 C3.67 9 3.34 9 3 9 Z " fill="#000000" transform="translate(1016,852)"/>
<path d="M0 0 C2.64 0 5.28 0 8 0 C8.34667725 0.82910889 8.69335449 1.65821777 9.05053711 2.51245117 C10.67858342 6.40452881 12.3077439 10.29613807 13.9375 14.1875 C14.23079193 14.88796448 14.52408386 15.58842896 14.82626343 16.31011963 C18.98353475 26.23547146 23.17488565 36.14478707 27.45874023 46.01635742 C30 51.89614673 30 51.89614673 30 53 C27.03 53 24.06 53 21 53 C18.525 47.06 18.525 47.06 16 41 C3.13 40.505 3.13 40.505 -10 40 C-10.495 42.475 -10.495 42.475 -11 45 C-11.97265625 47.23828125 -11.97265625 47.23828125 -13.0625 49.3125 C-13.42472656 50.00988281 -13.78695312 50.70726562 -14.16015625 51.42578125 C-14.43730469 51.94527344 -14.71445312 52.46476563 -15 53 C-17.64 53 -20.28 53 -23 53 C-18.81434653 41.46445106 -13.75719347 30.35394978 -8.6875 19.1875 C-7.84276706 17.31981153 -6.99836356 15.45197403 -6.15429688 13.58398438 C-4.10665453 9.05426423 -2.05457852 4.52657801 0 0 Z M3 9 C-0.3 17.25 -3.6 25.5 -7 34 C-0.4 34 6.2 34 13 34 C12.26268982 30.31344912 11.53481038 27.53802554 10.15234375 24.13671875 C9.61577148 22.80737305 9.61577148 22.80737305 9.06835938 21.45117188 C8.50858398 20.0831543 8.50858398 20.0831543 7.9375 18.6875 C7.37192383 17.29047852 7.37192383 17.29047852 6.79492188 15.86523438 C5.86716875 13.57521083 4.93541999 11.28690004 4 9 C3.67 9 3.34 9 3 9 Z " fill="#000000" transform="translate(640,852)"/>
<path d="M0 0 C2.31 0 4.62 0 7 0 C7.01458252 1.05388916 7.02916504 2.10777832 7.04418945 3.19360352 C7.10244945 7.12818213 7.17967904 11.06220493 7.26245117 14.99633789 C7.29557083 16.69448786 7.32364261 18.39274448 7.34643555 20.09106445 C7.38022169 22.54163787 7.43254639 24.99124531 7.48828125 27.44140625 C7.49467117 28.19273331 7.5010611 28.94406036 7.50764465 29.71815491 C7.66650459 35.49833684 8.86358652 40.16321957 12.41796875 44.8828125 C15.56589414 47.10579191 19.24563414 47.10268351 23 47 C26.72480539 45.7583982 28.43712356 44.73756223 30.8125 41.625 C33.09162512 36.58693395 33.18934171 31.53240447 33.31640625 26.07421875 C33.33718735 25.32662796 33.35796844 24.57903717 33.37937927 23.80879211 C33.44444189 21.43511604 33.5035571 19.06133513 33.5625 16.6875 C33.60572646 15.07225505 33.64934204 13.45702047 33.69335938 11.84179688 C33.80007851 7.89463701 33.90146619 3.94737233 34 0 C36.31 0 38.62 0 41 0 C41.09968046 5.22862331 41.17184747 10.45668044 41.21972656 15.68603516 C41.23970839 17.46087289 41.26690355 19.23564594 41.30175781 21.01025391 C41.67701716 40.6230731 41.67701716 40.6230731 37 48 C32.13854511 52.98610758 27.02519909 54.30934026 20.1875 54.4375 C13.84058742 54.33781027 9.61576941 53.45299669 5 49 C1.35233002 44.41703003 -0.13230842 40.75099469 -0.11352539 34.96582031 C-0.11344986 34.18531311 -0.11337433 33.40480591 -0.11329651 32.60064697 C-0.10813522 31.76821472 -0.10297394 30.93578247 -0.09765625 30.078125 C-0.0962413 29.21813904 -0.09482635 28.35815308 -0.09336853 27.47210693 C-0.08778097 24.73136891 -0.07523075 21.99071324 -0.0625 19.25 C-0.05748339 17.3893241 -0.05292077 15.52864691 -0.04882812 13.66796875 C-0.03781561 9.11194754 -0.02055951 4.55598772 0 0 Z " fill="#000000" transform="translate(751,852)"/>
<path d="M0 0 C11.22 0 22.44 0 34 0 C34 1.98 34 3.96 34 6 C25.09 6 16.18 6 7 6 C7 11.28 7 16.56 7 22 C15.58 22 24.16 22 33 22 C33 23.98 33 25.96 33 28 C24.42 28 15.84 28 7 28 C7 34.27 7 40.54 7 47 C16.57 47 26.14 47 36 47 C36 48.98 36 50.96 36 53 C24.12 53 12.24 53 0 53 C0 35.51 0 18.02 0 0 Z " fill="#000000" transform="translate(1378,852)"/>
<path d="M0 0 C11.22 0 22.44 0 34 0 C34 1.98 34 3.96 34 6 C25.09 6 16.18 6 7 6 C7 11.28 7 16.56 7 22 C15.58 22 24.16 22 33 22 C33 23.98 33 25.96 33 28 C24.42 28 15.84 28 7 28 C7 34.27 7 40.54 7 47 C16.57 47 26.14 47 36 47 C36 48.98 36 50.96 36 53 C24.12 53 12.24 53 0 53 C0 35.51 0 18.02 0 0 Z " fill="#000000" transform="translate(276,852)"/>
<path d="M0 0 C0.886875 0.66 1.77375 1.32 2.6875 2 C2.6875 6 2.6875 6 1.1875 7.75 C0.6925 8.1625 0.1975 8.575 -0.3125 9 C-0.869375 8.71125 -1.42625 8.4225 -2 8.125 C-2.763125 7.75375 -3.52625 7.3825 -4.3125 7 C-5.055 6.608125 -5.7975 6.21625 -6.5625 5.8125 C-10.55696251 4.63231789 -13.22403332 5.14274086 -17.3125 6 C-20.0342093 7.66814441 -20.27011671 8.86719902 -21.25 11.9375 C-21.63118292 15.01559408 -21.63118292 15.01559408 -19.77734375 17.0078125 C-16.22214718 19.88126773 -12.23085664 21.13573886 -7.9765625 22.62304688 C-2.91948399 24.49396201 2.16308646 26.95117293 4.6875 32 C5.20342086 37.17612405 5.28488983 41.63098164 3.1875 46.4375 C-1.92489674 51.67770666 -6.4877702 53.2453744 -13.8125 53.5 C-19.42761357 53.31760652 -23.79486096 52.42877219 -28.3125 49 C-30.3125 46.75 -30.3125 46.75 -31.3125 45 C-29.6625 43.68 -28.0125 42.36 -26.3125 41 C-23.99246782 42.16001609 -21.77817635 43.32788042 -19.5625 44.6875 C-15.44011756 46.35230829 -12.52143878 46.40585455 -8.3125 45 C-5.14265739 42.99820005 -5.14265739 42.99820005 -3.3125 40 C-3.05920216 36.85289698 -3.05920216 36.85289698 -4.3125 34 C-8.39401478 30.18212374 -13.69855588 29.06526745 -18.90234375 27.37890625 C-23.65642664 25.45657949 -26.47500539 23.25624191 -29.3125 19 C-29.9478232 14.36548442 -30.33248139 9.3496 -28.4375 4.984375 C-22.15941602 -3.19365545 -8.7871982 -5.02892606 0 0 Z " fill="#000000" transform="translate(422.3125,853)"/>
<path d="M0 0 C14.19 0 28.38 0 43 0 C43 1.98 43 3.96 43 6 C37.06 6 31.12 6 25 6 C25 21.51 25 37.02 25 53 C22.69 53 20.38 53 18 53 C18 37.49 18 21.98 18 6 C12.06 6 6.12 6 0 6 C0 4.02 0 2.04 0 0 Z " fill="#000000" transform="translate(1254,852)"/>
<path d="M0 0 C14.19 0 28.38 0 43 0 C43 1.98 43 3.96 43 6 C37.06 6 31.12 6 25 6 C25 21.51 25 37.02 25 53 C22.69 53 20.38 53 18 53 C18 37.49 18 21.98 18 6 C12.06 6 6.12 6 0 6 C0 4.02 0 2.04 0 0 Z " fill="#000000" transform="translate(506,852)"/>
</svg>
